<svg width="295" height="378" viewBox="0 0 295 378" fill="none" xmlns="http://www.w3.org/2000/svg">
<path d="M211.914 230.957L211.426 238.77H181.396C180.257 220.378 178.141 208.822 175.049 204.102C169.515 195.801 159.505 191.65 145.02 191.65H95.9473V309.326C95.9473 325.114 98.9583 335.612 104.98 340.82C110.84 345.866 123.454 348.714 142.822 349.365H189.453C222.005 349.365 244.466 335.286 256.836 307.129C260.742 298.34 263.346 288.411 264.648 277.344H294.922C294.922 295.898 293.05 315.43 289.307 335.938L281.982 377.441H0L4.15039 350.586C20.4264 350.586 31.0872 347.005 36.1328 339.844C40.6901 333.659 42.9688 321.208 42.9688 302.49V79.3457C42.9688 47.9329 35.8887 32.2266 21.7285 32.2266C15.8691 32.2266 9.68424 32.959 3.17383 34.4238L6.10352 3.90625H195.557C234.782 3.90625 264.16 2.60417 283.691 0C283.691 26.0417 281.169 52.0833 276.123 78.125C274.821 84.3099 273.682 89.0299 272.705 92.2852H247.803C246.175 65.918 241.13 49.235 232.666 42.2363C227.946 38.3301 221.761 35.8887 214.111 34.9121C206.624 33.9355 197.184 33.4473 185.791 33.4473H95.9473V164.062H146.484C162.76 164.062 173.421 160.563 178.467 153.564C181.722 149.17 184.326 138.916 186.279 122.803L216.064 122.559L216.309 135.498C216.309 156.169 214.844 187.988 211.914 230.957Z" fill="#31B95F"/>
</svg>
