<svg width="372" height="246" viewBox="0 0 372 246" fill="none" xmlns="http://www.w3.org/2000/svg">
<rect x="0.455261" y="0.61377" width="371.09" height="245.297" rx="10" fill="white"/>
<rect x="1.45526" y="1.61377" width="369.09" height="243.297" rx="9" stroke="black" stroke-opacity="0.2" stroke-width="2"/>
<mask id="mask0_9_505" style="mask-type:luminance" maskUnits="userSpaceOnUse" x="191" y="18" width="163" height="43">
<path d="M191 18H354V61H191V18Z" fill="white"/>
</mask>
<g mask="url(#mask0_9_505)">
<path d="M257.68 47.1196C257.68 46.7877 257.465 46.5421 257.026 46.4464V46.2317C257.269 46.2317 258.078 46.2645 258.305 46.2645C258.502 46.2645 259.285 46.2317 259.529 46.2317V46.4464C259.122 46.5265 258.908 46.7688 258.908 47.1196V51.333C258.908 52.6673 259.634 53.4215 261.154 53.4215C262.464 53.4215 263.483 52.8285 263.483 51.4322V47.1032C263.483 46.7902 263.288 46.5421 262.797 46.4464V46.2317C262.976 46.2317 263.644 46.2645 263.873 46.2645C264.068 46.2645 264.769 46.2317 264.949 46.2317V46.4464C264.475 46.5603 264.265 46.7738 264.265 47.1032V51.2001C264.265 53.0388 263.204 54.0948 260.915 54.0948C258.784 54.0948 257.68 53.1181 257.68 51.3906V47.1196Z" fill="#1D1D1B"/>
<path d="M266.821 53.7646C267.317 53.6715 267.512 53.4182 267.512 53.1078V47.2843C267.512 46.7903 267.252 46.5681 266.807 46.4457V46.231C267.059 46.2499 267.481 46.261 267.696 46.261C267.892 46.261 268.196 46.2577 268.401 46.231L273.41 52.1701V47.1033C273.41 46.7911 273.214 46.543 272.725 46.4457V46.231C272.904 46.231 273.549 46.2645 273.778 46.2645C273.977 46.2645 274.668 46.231 274.85 46.231V46.4457C274.372 46.5594 274.141 46.7749 274.141 47.1033V54.0947H273.84C273.65 54.0508 273.291 53.8448 272.744 53.2398L268.262 47.9756V53.1078C268.262 53.4198 268.441 53.6672 268.93 53.7646V53.9801C268.75 53.9801 268.106 53.9458 267.877 53.9458C267.679 53.9458 267.003 53.9801 266.821 53.9801V53.7646Z" fill="#1D1D1B"/>
<path d="M306.347 52.1941H306.559C306.671 52.6292 306.918 53.026 307.264 53.2552C307.624 53.5111 308.189 53.6335 308.645 53.6335C309.653 53.6335 310.292 53.1302 310.292 52.3337C310.292 51.5088 309.474 51.0804 308.493 50.5865C307.764 50.2185 306.331 49.6109 306.331 48.2143C306.331 46.9135 307.315 46.1042 308.889 46.1042C309.928 46.1042 310.415 46.3602 311.116 46.3274L311.102 47.9057H310.888C310.608 46.9756 309.77 46.6515 308.853 46.6515C307.827 46.6515 307.444 47.243 307.444 47.8446C307.444 48.7058 308.279 49.14 309.227 49.566C310.292 50.0443 311.447 50.6486 311.447 51.9941C311.447 53.2681 310.459 54.1906 308.653 54.1906C307.579 54.1906 306.934 53.8811 306.369 53.811L306.347 52.1941Z" fill="#1D1D1B"/>
<path d="M327.873 50.7744L325.834 47.4749C325.486 46.8957 325.219 46.5903 324.831 46.4456V46.2317C325.111 46.2317 325.866 46.2654 326.08 46.2654C326.274 46.2654 327.089 46.2317 327.383 46.2317V46.4456C327.122 46.4921 327 46.6239 327 46.8222C327 46.9972 327.118 47.2223 327.236 47.4179C327.353 47.6118 328.74 49.9324 328.74 49.9324L330.189 47.4189C330.335 47.167 330.439 46.9171 330.439 46.7524C330.439 46.6024 330.333 46.4782 330.086 46.4456V46.2317C330.332 46.2317 330.847 46.2654 331.011 46.2654C331.176 46.2654 331.768 46.2317 332.011 46.2317V46.431C331.454 46.6612 331.106 47.1541 330.769 47.7256L328.915 50.8504M329.041 50.4564V53.0923C329.041 53.3535 329.238 53.6819 329.685 53.7645V53.9802C329.436 53.9802 328.624 53.9457 328.389 53.9457C328.191 53.9457 327.412 53.9802 327.131 53.9802V53.7645C327.579 53.6819 327.794 53.3535 327.794 53.0923V50.572" fill="#1D1D1B"/>
<path d="M289.976 46.2317H294.758C294.906 46.2317 295.165 46.2145 295.313 46.1499H295.527L295.493 47.7169H295.281C295.099 47.2239 294.91 46.8291 293.985 46.8291H291.908V49.5599H293.509C293.742 49.5599 294.025 49.54 294.147 49.5107C294.507 49.4314 294.665 49.2296 294.738 48.9203H294.951C294.936 49.1563 294.936 49.6952 294.936 49.8547C294.936 50.015 294.951 50.5822 294.951 50.8391H294.738C294.635 50.5304 294.495 50.2959 294.147 50.2098C294.025 50.177 293.737 50.1503 293.509 50.1503H291.908V53.3536H294.167C295.153 53.3536 295.44 52.9389 295.685 52.3528L295.896 52.4026L295.685 54.0121C294.951 53.9465 294.511 53.9465 293.679 53.9465H291.292C291.062 53.9465 290.218 53.9803 289.973 53.9803V53.7655C290.404 53.6827 290.655 53.468 290.655 53.0517V47.1274C290.655 46.7602 290.459 46.5308 289.976 46.449V46.2317Z" fill="#1D1D1B"/>
<path d="M277.76 47.1696C277.76 46.7723 277.525 46.5534 277.065 46.4532V46.2404C277.321 46.2404 278.151 46.273 278.393 46.273C278.596 46.273 279.449 46.2404 279.709 46.2404V46.4532C279.25 46.5534 279.01 46.7514 279.01 47.1696V53.0527C279.01 53.45 279.246 53.6663 279.709 53.7645V53.9802C279.45 53.9802 278.632 53.9464 278.393 53.9464C278.187 53.9464 277.321 53.9802 277.064 53.9802V53.7645C277.535 53.6759 277.76 53.4681 277.76 53.0527V47.1696Z" fill="#1D1D1B"/>
<path d="M314.041 47.1696C314.041 46.7723 313.803 46.5534 313.343 46.4532V46.2404C313.6 46.2404 314.431 46.273 314.671 46.273C314.875 46.273 315.728 46.2404 315.987 46.2404V46.4532C315.529 46.5534 315.29 46.7514 315.29 47.1696V53.0527C315.29 53.45 315.526 53.6663 315.987 53.7645V53.9802C315.73 53.9802 314.913 53.9464 314.671 53.9464C314.468 53.9464 313.6 53.9802 313.343 53.9802V53.7645C313.813 53.6759 314.041 53.4681 314.041 53.0527V47.1696Z" fill="#1D1D1B"/>
<path d="M320.689 46.2646C318.067 46.2646 317.647 46.2154 317.111 46.1818L317.116 47.7782H317.329C317.525 47.0705 317.916 46.9059 318.422 46.9059H320.066V53.0528C320.066 53.468 319.841 53.676 319.369 53.7646V53.9803C319.628 53.9803 320.501 53.9466 320.703 53.9466C320.943 53.9466 321.764 53.9803 322.02 53.9803V53.7646C321.556 53.6664 321.321 53.4501 321.321 53.0528V46.9059H322.953C323.478 46.9059 323.853 47.0861 324.049 47.7782H324.26L324.263 46.1818C323.731 46.2154 323.311 46.2646 320.689 46.2646Z" fill="#1D1D1B"/>
<path d="M299.768 53.0527C299.768 53.45 300.019 53.6655 300.481 53.7645V53.9802C300.225 53.9802 299.386 53.9465 299.147 53.9465C298.942 53.9465 298.123 53.9802 297.865 53.9802V53.7645C298.294 53.6819 298.547 53.4681 298.547 53.0527V47.1095C298.547 46.744 298.349 46.5138 297.866 46.431V46.2172C298.123 46.2172 298.934 46.2498 299.163 46.2498C299.539 46.2498 300.605 46.1862 301.025 46.1862C302.863 46.1862 303.886 46.9525 303.886 48.266C303.886 49.2986 303.124 49.997 301.951 50.2823C301.951 50.2823 302.219 50.439 302.486 50.752C302.81 51.1372 303.685 52.4037 304.048 52.8465C304.411 53.2907 304.875 53.7862 305.372 53.8086V53.9818C305.134 54.0343 304.752 54.0802 304.459 54.0802C303.835 54.0802 303.337 53.8578 302.853 53.2674C302.435 52.7536 301.724 51.6874 301.306 51.1485C301.039 50.8055 300.715 50.5374 300.121 50.439C300.007 50.4193 299.898 50.4029 299.768 50.3875V53.0527ZM299.768 49.8943C300.013 49.9279 300.373 49.9435 300.728 49.9435C302.167 49.9435 302.62 49.1091 302.62 48.3705C302.62 47.3258 301.928 46.6784 300.669 46.6784C300.409 46.6784 300.031 46.7112 299.768 46.761V49.8943Z" fill="#1D1D1B"/>
<path d="M281.552 47.1946C281.384 46.8205 281.127 46.5464 280.688 46.4492V46.2309C280.961 46.2309 281.906 46.2654 282.113 46.2654C282.304 46.2654 283.13 46.2309 283.41 46.2309V46.4429C283.161 46.4911 282.877 46.6299 282.877 46.8869C282.877 47.0704 282.988 47.3205 283.199 47.7912L285.179 52.3336L287.052 47.7834C287.2 47.4162 287.307 47.1317 287.307 46.9144C287.307 46.6741 287.087 46.5075 286.776 46.4429V46.2309C287.025 46.2309 287.635 46.2654 287.825 46.2654C287.999 46.2654 288.715 46.2309 288.988 46.2309V46.4492C288.521 46.5766 288.236 46.8361 287.974 47.4507L285.216 54.0076H284.592L281.552 47.1946Z" fill="#1D1D1B"/>
<path d="M288.622 26.5158C288.303 25.8063 287.814 25.2892 286.986 25.1039V24.6909C287.501 24.6909 289.212 24.753 289.606 24.753C289.968 24.753 291.626 24.6909 292.154 24.6909V25.0935C291.685 25.1859 291.147 25.4496 291.147 25.9366C291.147 26.2804 291.359 26.7556 291.752 27.6459L295.507 36.2544L299.06 27.6312C299.337 26.933 299.544 26.3995 299.544 25.9865C299.544 25.5279 299.124 25.2169 298.535 25.0935V24.6909C299.005 24.6909 300.148 24.753 300.511 24.753C300.841 24.753 302.198 24.6909 302.715 24.6909V25.0806C301.829 25.3229 301.287 25.8358 300.794 27.0002L295.57 39.4292H294.388L288.622 26.5158Z" fill="#1D1D1B"/>
<path d="M238.058 38.9559C238.74 38.7989 239.219 38.4861 239.219 37.7069V26.3123C239.219 25.5642 238.773 25.2538 238.058 25.0659V24.6616C238.416 24.6616 239.959 24.7229 240.334 24.7229C240.766 24.7229 242.384 24.6616 242.739 24.6616V25.0659C242.058 25.2219 241.553 25.5339 241.553 26.3123V31.0722H249.971V26.3123C249.971 25.5339 249.522 25.2219 248.811 25.0659V24.6616C249.167 24.6616 250.755 24.7229 251.186 24.7229C251.559 24.7229 253.138 24.6616 253.49 24.6616V25.0659C252.808 25.2219 252.303 25.5339 252.303 26.3123V37.7069C252.303 38.4551 252.777 38.7688 253.49 38.9559V39.329C253.138 39.329 251.559 39.2981 251.186 39.2981C250.755 39.2981 249.167 39.329 248.811 39.329V38.9559C249.488 38.7989 249.971 38.4861 249.971 37.7069V32.3219H241.553V37.7069C241.553 38.4861 242.026 38.7688 242.739 38.9559V39.329C242.384 39.329 240.766 39.2981 240.334 39.2981C239.959 39.2981 238.416 39.329 238.058 39.329V38.9559Z" fill="#1D1D1B"/>
<path d="M335.428 38.9559C336.302 38.7989 336.783 38.449 336.783 37.6449V26.3123C336.783 25.5314 336.308 25.2219 335.464 25.0659V24.6616C335.95 24.6616 337.533 24.7229 337.972 24.7229C338.68 24.7229 340.654 24.5669 342.191 24.5669C347.37 24.5669 350.514 27.483 350.514 31.917C350.514 36.2268 347.242 39.4205 341.903 39.4205C340.364 39.4205 338.538 39.2981 337.823 39.2981C337.389 39.2981 335.913 39.36 335.428 39.36V38.9559ZM339.115 38.205C339.642 38.3016 340.617 38.362 341.385 38.362C345.735 38.362 348 35.7218 348 32.0394C348 28.2217 345.611 25.5357 341.543 25.5357C340.712 25.5357 339.674 25.5985 339.115 25.6901V38.205Z" fill="#1D1D1B"/>
<path d="M276.813 37.6035C276.813 38.3587 277.288 38.7689 278.161 38.9559V39.3602C277.674 39.3602 276.09 39.2981 275.635 39.2981C275.25 39.2981 273.696 39.3602 273.21 39.3602V38.9559C274.021 38.7991 274.499 38.3922 274.499 37.6035V26.3522C274.499 25.6599 274.128 25.2221 273.212 25.0659V24.6616C273.699 24.6616 275.234 24.7229 275.664 24.7229C276.377 24.7229 278.396 24.6032 279.192 24.6032C282.675 24.6032 284.613 26.0556 284.613 28.5398C284.613 30.4982 283.167 31.8161 280.947 32.36C280.947 32.36 281.451 32.6558 281.957 33.2513C282.572 33.9797 284.268 36.4278 284.954 37.2663C285.639 38.106 286.519 39.0437 287.459 39.0869V39.4172C287.009 39.5152 286.287 39.599 285.736 39.599C284.549 39.599 283.606 39.18 282.689 38.0594C281.898 37.0871 280.515 35.0201 279.722 33.9996C279.216 33.3495 278.606 32.8428 277.485 32.6558C277.265 32.6177 277.057 32.5884 276.813 32.5609V37.6035ZM276.813 31.6275C277.274 31.6886 277.955 31.7196 278.631 31.7196C281.354 31.7196 282.21 30.1388 282.21 28.7423C282.21 26.759 280.9 25.5357 278.514 25.5357C278.023 25.5357 277.307 25.5987 276.813 25.6901V31.6275Z" fill="#1D1D1B"/>
<path d="M322.713 37.6035C322.713 38.3587 323.189 38.7689 324.063 38.9559V39.3602C323.577 39.3602 321.995 39.2981 321.539 39.2981C321.148 39.2981 319.599 39.3602 319.111 39.3602V38.9559C319.92 38.7991 320.399 38.3922 320.399 37.6035V26.3522C320.399 25.6599 320.025 25.2221 319.114 25.0659V24.6616C319.602 24.6616 321.132 24.7229 321.567 24.7229C322.28 24.7229 324.298 24.6032 325.09 24.6032C328.579 24.6032 330.511 26.0556 330.511 28.5398C330.511 30.4982 329.068 31.8161 326.847 32.36C326.847 32.36 327.353 32.6558 327.855 33.2513C328.476 33.9797 330.172 36.4278 330.855 37.2663C331.543 38.106 332.422 39.0437 333.358 39.0869V39.4172C332.913 39.5152 332.188 39.599 331.642 39.599C330.452 39.599 329.505 39.18 328.59 38.0594C327.8 37.0871 326.421 35.0201 325.622 33.9996C325.116 33.3495 324.507 32.8428 323.389 32.6558C323.165 32.6177 322.96 32.5884 322.713 32.5609V37.6035ZM322.713 31.6275C323.179 31.6886 323.857 31.7196 324.533 31.7196C327.257 31.7196 328.11 30.1388 328.11 28.7423C328.11 26.759 326.8 25.5357 324.418 25.5357C323.922 25.5357 323.209 25.5987 322.713 25.6901V31.6275Z" fill="#1D1D1B"/>
<path d="M255.705 38.9533C256.626 38.7362 257.132 38.1344 257.468 37.3293L262.131 26.0176C262.329 25.5497 262.56 24.5875 262.56 24.5875H263.864C263.864 24.5875 264.097 25.5522 264.291 26.0212L269.219 37.3603C269.57 38.1413 269.95 38.7051 270.93 38.9533L270.927 39.3301C270.394 39.3301 268.736 39.299 268.358 39.299C267.983 39.299 266.399 39.3301 265.867 39.3301L265.869 38.9533C266.586 38.7758 266.812 38.4078 266.812 38.0517C266.812 37.7492 266.688 37.4078 266.538 37.0536L265.479 34.6174H260.05L259.08 37.0673C258.971 37.3449 258.842 37.7371 258.842 38.0017C258.842 38.4103 259.054 38.7362 259.868 38.9533L259.866 39.3301C259.384 39.3301 258.111 39.299 257.813 39.299L255.704 39.3301L255.705 38.9533ZM264.987 33.4624L262.669 28.0157L260.51 33.4624H264.987Z" fill="#1D1D1B"/>
<path d="M301.892 38.9533C302.813 38.7362 303.321 38.1344 303.655 37.3293L308.319 26.0176C308.517 25.5497 308.751 24.5875 308.751 24.5875H310.055C310.055 24.5875 310.286 25.5522 310.479 26.0212L315.408 37.3603C315.756 38.1413 316.14 38.7051 317.116 38.9533L317.114 39.3301C316.582 39.3301 314.922 39.299 314.543 39.299C314.171 39.299 312.588 39.3301 312.054 39.3301V38.9533C312.776 38.7758 312.999 38.4078 312.999 38.0517C312.999 37.7492 312.877 37.4078 312.729 37.0536L311.666 34.6174H306.237L305.266 37.0673C305.157 37.3449 305.029 37.7371 305.029 38.0017C305.029 38.4103 305.241 38.7362 306.055 38.9533V39.3301C305.571 39.3301 304.3 39.299 304 39.299L301.891 39.3301L301.892 38.9533ZM311.175 33.4624L308.855 28.0157L306.697 33.4624H311.175Z" fill="#1D1D1B"/>
<path d="M195.015 20.0881H227.521V32.4704C227.521 38.1438 225.427 50.1753 211.389 59.1296C211.389 59.1296 196.179 52.7241 195.015 32.4704V20.0881Z" fill="#A81D28"/>
<path d="M194.948 20.0553H227.486V32.4462C227.486 38.1216 225.389 50.1597 211.339 59.1201C211.339 59.1201 196.114 52.7105 194.948 32.4462V20.0553Z" stroke="#12110C" stroke-width="0.306667"/>
<path d="M219.619 35.9993C219.619 35.9993 219.329 36.9309 218.04 35.9733L213.615 35.8655C213.615 35.8655 213.035 36.0535 212.956 35.4423C212.956 35.4423 213.062 34.2211 213.009 34.1141C213.009 34.1141 213.035 33.7693 212.454 33.7693C212.454 33.7693 211.56 33.8753 211.533 33.0772C211.533 33.0772 211.377 32.2273 212.614 32.2556C212.614 32.2556 213.009 32.4409 213.035 31.935C213.035 31.935 212.983 28.4811 213.009 28.2173C213.009 28.2173 213.114 27.9001 212.507 27.8458C212.507 27.8458 211.639 28.0311 211.533 27.4485C211.533 27.4485 211.481 26.5719 212.061 26.5176C212.061 26.5176 212.772 26.5719 212.903 26.3848C212.903 26.3848 213.062 26.4899 213.035 25.8555L213.062 24.7642C213.062 24.7642 213.138 24.4729 213.587 24.5014C213.587 24.5014 214.404 24.5539 214.511 24.4729C214.511 24.4729 214.693 24.2351 214.747 24.1271C214.747 24.1271 215.169 24.1013 215.247 24.2081C215.247 24.2081 215.88 24.6332 218.277 24.4729C218.277 24.4729 218.646 24.4729 218.723 24.5799C218.723 24.5799 219.172 24.9244 219.435 24.5539C219.435 24.5539 219.83 24.4729 221.015 24.5014C221.015 24.5014 222.307 24.8452 223.2 24.1013L223.491 24.1548C223.491 24.1548 223.859 24.7642 224.123 24.5799C224.123 24.5799 224.913 24.5014 225.044 24.6599C225.044 24.6599 225.307 25.0556 225.176 26.0951C225.176 26.0951 225.019 26.5451 225.783 26.5451C225.783 26.5451 226.653 26.3848 226.546 27.2079C226.546 27.2079 226.783 28.1381 225.336 28.0061C225.336 28.0061 225.15 28.2716 225.176 28.4578C225.176 28.4578 225.15 31.4842 225.124 31.8315C225.124 31.8315 225.098 32.3101 225.729 32.2823C225.729 32.2823 226.573 32.2273 226.601 32.9987C226.601 32.9987 226.705 34.0081 225.492 33.821C225.492 33.821 225.124 33.8753 225.069 34.1141L225.019 35.4423C225.019 35.4423 225.044 36.1061 224.308 35.9458C224.203 35.9458 220.2 36.0278 219.856 35.9218C219.856 35.9218 219.67 35.895 219.619 35.9993Z" fill="white"/>
<path d="M211.111 40.4385C211.111 40.4385 211.296 40.36 211.348 40.229C211.348 40.229 211.902 40.1745 211.979 40.0955L213.719 40.229C213.719 40.229 215.43 40.36 216.168 39.8264C216.168 39.8264 216.433 39.8264 216.617 39.9074C216.617 39.9074 216.984 39.9885 217.089 40.1454L218.091 40.1187C218.091 40.1187 218.671 40.3065 218.617 40.6788V41.1556C218.617 41.1556 218.511 42.1125 218.774 42.1667H219.54C219.54 42.1667 220.173 42.4582 220.093 42.8296C220.093 42.8296 220.12 43.3588 219.567 43.4666C219.567 43.4666 219.012 43.6251 218.83 43.6002C218.83 43.6002 218.644 43.8382 218.617 44.1302L218.54 47.6101C218.54 47.6101 218.486 47.9817 219.04 47.929C219.04 47.929 219.855 47.8489 220.093 48.3022C220.093 48.3022 220.304 49.0711 219.883 49.2039L219.567 49.3616L218.881 49.4721C218.881 49.4721 218.593 49.4961 218.566 50.0004V50.9286C218.566 50.9286 218.593 51.5684 218.091 51.5684L217.354 51.6217C217.354 51.6217 217.17 51.7786 216.801 51.6726C216.801 51.6726 212.323 51.7544 212.165 51.7004L211.638 51.8079C211.638 51.8079 211.059 52.339 210.584 51.9389L210.216 51.6467C210.216 51.6467 209.952 51.7004 209.848 51.6726C209.742 51.6467 204.896 51.7269 204.896 51.7269C204.896 51.7269 203.868 51.8347 203.79 51.4873C203.79 51.4873 203.659 50.134 203.711 49.9719C203.711 49.9719 203.711 49.5754 203.474 49.5496C203.474 49.5496 202.447 49.4961 202.42 49.3884C202.42 49.3884 201.866 48.992 202.024 48.5943C202.024 48.5943 202.21 48.0609 202.762 48.0082C202.762 48.0082 203.605 48.1427 203.605 47.9032C203.605 47.9032 203.659 47.7437 203.659 47.4791C203.659 47.4791 203.711 44.3165 203.684 44.1045C203.684 44.1045 203.763 43.7062 203.42 43.7062C203.42 43.7062 203.052 43.8114 202.816 43.6529C202.816 43.6529 202.183 43.6796 202.052 43.1743C202.052 43.1743 201.946 42.8563 202.103 42.5882C202.103 42.5882 202.394 42.0047 203.236 42.1915C203.236 42.1915 203.711 42.3253 203.763 41.9813L203.738 40.7038C203.738 40.7038 203.631 40.36 204.29 40.1745C204.29 40.1745 205.133 40.4125 205.396 39.9885C205.396 39.9885 205.686 39.4022 205.921 39.8006C205.921 39.8006 206.423 40.28 207.793 40.229C207.793 40.229 210.164 40.0412 210.216 40.1454C210.216 40.1454 210.795 40.229 210.953 40.4125L211.111 40.4385Z" fill="white"/>
<path d="M203.95 35.9994C203.95 35.9994 203.66 36.931 202.369 35.9726L197.944 35.8656C197.944 35.8656 197.365 36.0537 197.285 35.4418C197.285 35.4418 197.391 34.2212 197.337 34.1142C197.337 34.1142 197.365 33.7676 196.784 33.7676C196.784 33.7676 195.89 33.8762 195.865 33.079C195.865 33.079 195.706 32.2264 196.943 32.2557C196.943 32.2557 197.337 32.441 197.365 31.9361C197.365 31.9361 197.312 28.4837 197.337 28.2166C197.337 28.2166 197.444 27.9011 196.838 27.8467C196.838 27.8467 195.968 28.0312 195.865 27.4468C195.865 27.4468 195.811 26.572 196.389 26.5177C196.389 26.5177 197.101 26.572 197.233 26.3882C197.233 26.3882 197.391 26.4909 197.365 25.8529L197.391 24.7652C197.391 24.7652 197.471 24.473 197.916 24.4997C197.916 24.4997 198.735 24.5522 198.841 24.473C198.841 24.473 199.025 24.2352 199.075 24.1272C199.075 24.1272 199.499 24.1022 199.578 24.2057C199.578 24.2057 200.209 24.6333 202.608 24.473C202.608 24.473 202.975 24.473 203.054 24.58C203.054 24.58 203.501 24.9246 203.765 24.5522C203.765 24.5522 204.16 24.473 205.346 24.4997C205.346 24.4997 206.634 24.8445 207.531 24.1022L207.82 24.1567C207.82 24.1567 208.188 24.7652 208.454 24.58C208.454 24.58 209.243 24.4997 209.376 24.66C209.376 24.66 209.64 25.0583 209.505 26.0952C209.505 26.0952 209.349 26.546 210.112 26.546C210.112 26.546 210.981 26.3882 210.877 27.208C210.877 27.208 211.114 28.1382 209.665 28.0062C209.665 28.0062 209.48 28.2725 209.505 28.458C209.505 28.458 209.48 31.4843 209.454 31.8316C209.454 31.8316 209.429 32.3067 210.06 32.2825C210.06 32.2825 210.903 32.2264 210.929 32.9998C210.929 32.9998 211.034 34.0082 209.823 33.8211C209.823 33.8211 209.454 33.8762 209.4 34.1142L209.349 35.4418C209.349 35.4418 209.376 36.1062 208.636 35.9476C208.531 35.9476 204.53 36.0261 204.186 35.9219C204.186 35.9219 204.002 35.8951 203.95 35.9994Z" fill="white"/>
<path d="M219.619 35.9993C219.619 35.9993 219.329 36.9309 218.04 35.9733L213.615 35.8655C213.615 35.8655 213.035 36.0535 212.956 35.4423C212.956 35.4423 213.062 34.2211 213.009 34.1141C213.009 34.1141 213.035 33.7693 212.454 33.7693C212.454 33.7693 211.56 33.8753 211.533 33.0772C211.533 33.0772 211.377 32.2273 212.614 32.2556C212.614 32.2556 213.009 32.4409 213.035 31.935C213.035 31.935 212.983 28.4811 213.009 28.2173C213.009 28.2173 213.114 27.9001 212.507 27.8458C212.507 27.8458 211.639 28.0311 211.533 27.4485C211.533 27.4485 211.481 26.5719 212.061 26.5176C212.061 26.5176 212.772 26.5719 212.903 26.3848C212.903 26.3848 213.062 26.4899 213.035 25.8555L213.062 24.7642C213.062 24.7642 213.138 24.4729 213.587 24.5014C213.587 24.5014 214.404 24.5539 214.511 24.4729C214.511 24.4729 214.693 24.2351 214.747 24.1271C214.747 24.1271 215.169 24.1013 215.247 24.2081C215.247 24.2081 215.88 24.6332 218.277 24.4729C218.277 24.4729 218.646 24.4729 218.723 24.5799C218.723 24.5799 219.172 24.9244 219.435 24.5539C219.435 24.5539 219.83 24.4729 221.015 24.5014C221.015 24.5014 222.307 24.8452 223.2 24.1013L223.491 24.1548C223.491 24.1548 223.859 24.7642 224.123 24.5799C224.123 24.5799 224.913 24.5014 225.044 24.6599C225.044 24.6599 225.307 25.0556 225.176 26.0951C225.176 26.0951 225.019 26.5451 225.783 26.5451C225.783 26.5451 226.653 26.3848 226.546 27.2079C226.546 27.2079 226.783 28.1381 225.336 28.0061C225.336 28.0061 225.15 28.2716 225.176 28.4578C225.176 28.4578 225.15 31.4842 225.124 31.8315C225.124 31.8315 225.098 32.3101 225.729 32.2823C225.729 32.2823 226.573 32.2273 226.601 32.9987C226.601 32.9987 226.705 34.0081 225.492 33.821C225.492 33.821 225.124 33.8753 225.069 34.1141L225.019 35.4423C225.019 35.4423 225.044 36.1061 224.308 35.9458C224.203 35.9458 220.2 36.0278 219.856 35.9218C219.856 35.9218 219.67 35.895 219.619 35.9993Z" fill="#12110C"/>
<path d="M219.619 36.0001C219.619 36.0001 219.329 36.932 218.04 35.9743L213.614 35.8666C213.614 35.8666 213.034 36.0544 212.955 35.4425C212.955 35.4425 213.062 34.2211 213.008 34.1141C213.008 34.1141 213.034 33.7693 212.454 33.7693C212.454 33.7693 211.559 33.8763 211.532 33.078C211.532 33.078 211.376 32.2281 212.613 32.2557C212.613 32.2557 213.008 32.4411 213.034 31.9361C213.034 31.9361 212.982 28.4819 213.008 28.2174C213.008 28.2174 213.114 27.8993 212.507 27.8458C212.507 27.8458 211.638 28.0313 211.532 27.4485C211.532 27.4485 211.481 26.5709 212.06 26.5176C212.06 26.5176 212.771 26.5709 212.903 26.3849C212.903 26.3849 213.062 26.4899 213.034 25.8546L213.062 24.7634C213.062 24.7634 213.137 24.4721 213.588 24.5006C213.588 24.5006 214.404 24.5532 214.51 24.4721C214.51 24.4721 214.693 24.2351 214.747 24.1272C214.747 24.1272 215.169 24.1006 215.247 24.2076C215.247 24.2076 215.879 24.6324 218.277 24.4721C218.277 24.4721 218.646 24.4721 218.723 24.5789C218.723 24.5789 219.172 24.9237 219.435 24.5532C219.435 24.5532 219.83 24.4721 221.015 24.5006C221.015 24.5006 222.307 24.8445 223.201 24.1006L223.492 24.1531C223.492 24.1531 223.86 24.7634 224.123 24.5789C224.123 24.5789 224.913 24.5006 225.044 24.6582C225.044 24.6582 225.307 25.0557 225.177 26.0934C225.177 26.0934 225.019 26.5452 225.783 26.5452C225.783 26.5452 226.653 26.3849 226.546 27.2072C226.546 27.2072 226.783 28.1381 225.336 28.0053C225.336 28.0053 225.151 28.2709 225.177 28.4579C225.177 28.4579 225.151 31.4843 225.124 31.8308C225.124 31.8308 225.098 32.3091 225.73 32.2834C225.73 32.2834 226.574 32.2281 226.601 32.9987C226.601 32.9987 226.705 34.0081 225.493 33.8211C225.493 33.8211 225.124 33.8763 225.07 34.1141L225.019 35.4425C225.019 35.4425 225.044 36.1071 224.309 35.9468C224.204 35.9468 220.2 36.0278 219.856 35.9218C219.856 35.9218 219.67 35.8959 219.619 36.0001Z" stroke="#12110C" stroke-width="0.0133333"/>
<path d="M214.641 25.0565C214.641 25.0565 214.693 25.5883 214.693 25.7228C214.693 25.8546 214.616 33.397 214.616 33.397C214.616 33.397 214.693 33.9813 214.195 34.2744C214.195 34.2744 214.061 34.3261 214.037 33.9546L214.088 25.9891C214.088 25.9891 214.141 25.0038 214.641 25.0565Z" fill="white"/>
<path d="M214.642 25.0557C214.642 25.0557 214.693 25.5875 214.693 25.722C214.693 25.8546 214.616 33.398 214.616 33.398C214.616 33.398 214.693 33.9823 214.195 34.2744C214.195 34.2744 214.062 34.3271 214.035 33.9556L214.088 25.9883C214.088 25.9883 214.14 25.003 214.642 25.0557Z" stroke="#12110C" stroke-width="0.016"/>
<path d="M213.773 34.353C213.773 34.353 213.825 26.8633 213.8 26.7305C213.773 26.5995 213.825 26.8391 213.825 26.8391C213.825 26.8391 213.746 25.5357 214.089 25.0031C214.089 25.0031 213.982 24.554 213.377 25.1108L213.35 26.1985C213.35 26.1985 213.35 26.8106 212.798 26.7838C212.798 26.7838 212.166 26.7563 211.876 27.0486C211.876 27.0486 211.718 27.6337 212.323 27.5287C212.323 27.5287 213.272 27.5287 213.325 27.9242L213.272 31.9359C213.272 31.9359 213.483 32.6031 212.746 32.6031C212.746 32.6031 211.848 32.5463 211.876 33.1041C211.876 33.1041 212.061 33.5814 212.825 33.4237C212.825 33.4237 213.377 33.5279 213.35 34.0615V35.0701C213.35 35.0701 213.297 35.4709 213.825 35.4959H217.934C217.934 35.4959 218.143 35.5217 218.143 35.2561C218.143 35.2561 218.118 35.0443 217.802 35.0443L214.379 34.9908C214.379 34.9908 213.825 35.1779 213.773 34.353Z" fill="white"/>
<path d="M214.563 34.3408C214.563 34.3408 214.457 34.7123 214.852 34.6346H217.566L218.301 34.7959C218.301 34.7959 219.065 34.6081 218.301 34.1838C218.301 34.1838 215.879 34.208 215.669 34.1563C215.669 34.1563 215.168 34.0243 215.06 33.9978C215.06 33.9978 214.799 33.8918 214.563 34.3408Z" fill="white"/>
<path d="M214.563 34.3409C214.563 34.3409 214.457 34.7132 214.851 34.6357H217.565L218.302 34.7968C218.302 34.7968 219.066 34.6082 218.302 34.1831C218.302 34.1831 215.879 34.2071 215.668 34.1564C215.668 34.1564 215.167 34.0236 215.06 33.9969C215.06 33.9969 214.799 33.8909 214.563 34.3409Z" stroke="#12110C" stroke-width="0.016"/>
<path d="M219.066 34.7132C219.066 34.7132 218.565 34.7132 218.591 35.3786C218.591 35.3786 218.644 35.8811 219.171 35.8811C219.171 35.8811 219.643 35.8028 219.593 35.2718C219.593 35.2718 219.302 34.608 219.066 34.7132Z" fill="white"/>
<path d="M219.435 34.4486C219.435 34.4486 219.672 34.1841 219.831 34.1841C219.831 34.1841 222.464 34.4219 222.909 34.1038C222.909 34.1038 223.306 34.0246 223.412 34.1038C223.412 34.1038 223.806 34.4219 223.806 34.6081C223.806 34.6081 223.781 34.8485 223.306 34.7124C223.306 34.7124 220.33 34.7417 220.172 34.7417C220.172 34.7417 219.354 34.9262 219.435 34.4486Z" fill="white"/>
<path d="M219.434 34.4485C219.434 34.4485 219.671 34.183 219.83 34.183C219.83 34.183 222.464 34.421 222.91 34.1028C222.91 34.1028 223.307 34.0235 223.413 34.1028C223.413 34.1028 223.807 34.421 223.807 34.6088C223.807 34.6088 223.782 34.8493 223.307 34.7131C223.307 34.7131 220.329 34.7424 220.171 34.7424C220.171 34.7424 219.353 34.9269 219.434 34.4485Z" stroke="#12110C" stroke-width="0.016"/>
<path d="M219.777 35.3097C219.777 35.3097 219.777 35.0949 220.146 35.0949L223.832 35.0691C223.832 35.0691 224.176 35.2554 224.176 34.6191C224.176 34.6191 224.311 31.7239 224.323 28.5363C224.327 27.5873 224.37 26.5917 224.336 25.6693C224.336 25.6693 224.254 25.2702 224.148 25.1892C224.148 25.1892 224.148 24.7651 224.597 24.9246C224.597 24.9246 224.992 24.9514 224.887 25.5642L224.914 26.4898C224.914 26.4898 224.835 26.8907 225.544 26.7831C225.544 26.7831 226.254 26.8907 226.283 27.1544C226.283 27.1544 226.493 27.688 225.652 27.6337H225.043C225.043 27.6337 224.781 27.7925 224.859 28.1123L224.781 31.9643C224.781 31.9643 224.728 32.6271 225.36 32.6021C225.36 32.6021 226.018 32.5746 226.15 32.7876C226.15 32.7876 226.601 33.4512 225.624 33.3979C225.624 33.3979 225.018 33.3702 224.887 33.478C224.887 33.478 224.781 33.6097 224.702 34.8597C224.702 34.8597 224.756 35.6035 224.202 35.5217C224.202 35.5217 220.54 35.5742 220.198 35.4959C220.198 35.4959 219.83 35.6035 219.777 35.3097Z" fill="white"/>
<path d="M215.037 24.8152L214.957 33.3435C214.957 33.3435 214.932 33.7392 215.59 33.8193C215.59 33.8193 216.353 33.8986 216.536 33.8193C216.536 33.8193 217.04 33.7918 218.328 33.846C218.328 33.846 218.646 34.1676 218.672 33.766C218.672 33.766 218.881 26.8632 218.778 25.4255C218.778 25.4255 218.749 24.8152 218.303 24.7884C218.303 24.7884 216.301 24.9514 216.117 24.7884L215.326 24.5781C215.326 24.5781 215.01 24.6039 215.037 24.8152Z" fill="white"/>
<path d="M219.197 25.2418C219.197 25.2418 219.119 29.2525 219.145 29.3853L219.093 32.7574L218.986 33.9271C218.986 33.9271 219.145 34.1657 219.277 34.0071C219.277 34.0071 220.12 33.7916 220.646 33.8754C220.646 33.8754 222.334 34.0331 222.675 33.7658C222.675 33.7658 222.939 33.8986 223.016 33.4736C223.016 33.4736 223.12 26.0391 223.071 25.9064C223.071 25.9064 223.173 24.841 223.12 24.7375C223.12 24.7375 223.097 24.4987 222.648 24.71C222.648 24.71 222.699 24.9237 220.199 24.841C220.199 24.841 219.251 24.815 219.197 25.2418Z" fill="white"/>
<path d="M223.387 25.1366L223.361 33.5279C223.361 33.5279 223.571 34.2743 223.913 34.196C223.913 34.196 223.965 34.0348 223.99 33.7692L224.097 25.7737C224.097 25.7737 223.832 24.5013 223.387 25.1366Z" fill="white"/>
<path d="M223.386 25.1358L223.36 33.5289C223.36 33.5289 223.571 34.2755 223.913 34.197C223.913 34.197 223.965 34.0357 223.991 33.7702L224.097 25.7729C224.097 25.7729 223.832 24.5005 223.386 25.1358Z" stroke="#12110C" stroke-width="0.016"/>
<path d="M220.152 27.6494C220.073 27.4373 220.6 27.4106 220.6 27.4106L220.864 27.4631C221.049 27.4373 221.233 27.5174 221.233 27.5174C221.417 27.8089 221.101 27.9674 221.101 27.9674L220.996 28.314C220.968 28.607 220.996 31.1301 220.996 31.1301C221.049 31.2611 221.259 31.4991 221.259 31.4991C221.259 31.7394 220.968 31.6869 220.968 31.6869L220.206 31.7136C219.968 31.6869 220.047 31.4204 220.047 31.4204C220.31 31.2878 220.39 30.8085 220.39 30.8085V28.1804L220.152 27.6494Z" fill="#12110C"/>
<path d="M216.597 30.1197L216.545 30.9428L216.78 31.3403C216.94 31.5524 216.676 31.7136 216.676 31.7136L215.833 31.6342C215.676 31.5524 215.833 31.2876 215.833 31.2876C216.044 31.1568 216.07 30.8093 216.07 30.8093L216.044 29.2691L216.07 28.1537C216.07 28.0199 215.86 27.7829 215.86 27.7829C215.676 27.7562 215.728 27.5174 215.728 27.5174C215.781 27.3838 216.227 27.4631 216.227 27.4631H217.335C218.389 27.8089 218.23 28.5793 218.23 28.5793C218.31 29.3483 217.494 29.6689 217.494 29.6689L217.439 30.0939L218.204 31.3136C218.336 31.4204 218.31 31.5281 218.31 31.5281C218.204 31.8204 217.782 31.5281 217.782 31.5281L216.835 30.0397C216.755 29.9327 216.597 30.1197 216.597 30.1197ZM216.623 28.0199C216.649 28.606 216.649 29.4026 216.649 29.4026C217.151 29.8017 217.439 29.2423 217.439 29.2423C218.096 28.606 217.439 28.0199 217.335 27.8622C217.228 27.7019 216.701 27.8347 216.701 27.8347L216.623 28.0199Z" fill="#12110C"/>
<path d="M211.111 40.4385C211.111 40.4385 211.296 40.36 211.348 40.229C211.348 40.229 211.902 40.1745 211.979 40.0955L213.719 40.229C213.719 40.229 215.43 40.36 216.168 39.8264C216.168 39.8264 216.433 39.8264 216.617 39.9074C216.617 39.9074 216.984 39.9885 217.089 40.1454L218.091 40.1187C218.091 40.1187 218.671 40.3065 218.617 40.6788V41.1556C218.617 41.1556 218.511 42.1125 218.774 42.1667H219.54C219.54 42.1667 220.173 42.4582 220.093 42.8296C220.093 42.8296 220.12 43.3588 219.567 43.4666C219.567 43.4666 219.012 43.6251 218.83 43.6002C218.83 43.6002 218.644 43.8382 218.617 44.1302L218.54 47.6101C218.54 47.6101 218.486 47.9817 219.04 47.929C219.04 47.929 219.855 47.8489 220.093 48.3022C220.093 48.3022 220.304 49.0711 219.883 49.2039L219.567 49.3616L218.881 49.4721C218.881 49.4721 218.593 49.4961 218.566 50.0004V50.9286C218.566 50.9286 218.593 51.5684 218.091 51.5684L217.354 51.6217C217.354 51.6217 217.17 51.7786 216.801 51.6726C216.801 51.6726 212.323 51.7544 212.165 51.7004L211.638 51.8079C211.638 51.8079 211.059 52.339 210.584 51.9389L210.216 51.6467C210.216 51.6467 209.952 51.7004 209.848 51.6726C209.742 51.6467 204.896 51.7269 204.896 51.7269C204.896 51.7269 203.868 51.8347 203.79 51.4873C203.79 51.4873 203.659 50.134 203.711 49.9719C203.711 49.9719 203.711 49.5754 203.474 49.5496C203.474 49.5496 202.447 49.4961 202.42 49.3884C202.42 49.3884 201.866 48.992 202.024 48.5943C202.024 48.5943 202.21 48.0609 202.762 48.0082C202.762 48.0082 203.605 48.1427 203.605 47.9032C203.605 47.9032 203.659 47.7437 203.659 47.4791C203.659 47.4791 203.711 44.3165 203.684 44.1045C203.684 44.1045 203.763 43.7062 203.42 43.7062C203.42 43.7062 203.052 43.8114 202.816 43.6529C202.816 43.6529 202.183 43.6796 202.052 43.1743C202.052 43.1743 201.946 42.8563 202.103 42.5882C202.103 42.5882 202.394 42.0047 203.236 42.1915C203.236 42.1915 203.711 42.3253 203.763 41.9813L203.738 40.7038C203.738 40.7038 203.631 40.36 204.29 40.1745C204.29 40.1745 205.133 40.4125 205.396 39.9885C205.396 39.9885 205.686 39.4022 205.921 39.8006C205.921 39.8006 206.423 40.28 207.793 40.229C207.793 40.229 210.164 40.0412 210.216 40.1454C210.216 40.1454 210.795 40.229 210.953 40.4125L211.111 40.4385Z" fill="#12110C"/>
<path d="M211.111 40.4057C211.111 40.4057 211.294 40.3282 211.348 40.1954C211.348 40.1954 211.901 40.1411 211.979 40.0617L213.718 40.1954C213.718 40.1954 215.43 40.3282 216.168 39.7946C216.168 39.7946 216.433 39.7946 216.617 39.8756C216.617 39.8756 216.985 39.9557 217.088 40.1126L218.092 40.0867C218.092 40.0867 218.671 40.2747 218.617 40.646V41.1238C218.617 41.1238 218.512 42.0804 218.775 42.1331H219.54C219.54 42.1331 220.172 42.4262 220.094 42.7977C220.094 42.7977 220.12 43.327 219.567 43.4348C219.567 43.4348 219.013 43.5933 218.831 43.5673C218.831 43.5673 218.645 43.8061 218.617 44.0984L218.539 47.5791C218.539 47.5791 218.486 47.9489 219.039 47.8971C219.039 47.8971 219.855 47.8188 220.094 48.2694C220.094 48.2694 220.305 49.0393 219.884 49.1728L219.567 49.3315L218.881 49.4393C218.881 49.4393 218.592 49.4651 218.566 49.9676V50.8995C218.566 50.8995 218.592 51.5363 218.092 51.5363L217.354 51.5898C217.354 51.5898 217.17 51.7486 216.801 51.6426C216.801 51.6426 212.323 51.7226 212.165 51.6675L211.637 51.7751C211.637 51.7751 211.059 52.3069 210.584 51.9061L210.215 51.6139C210.215 51.6139 209.952 51.6675 209.848 51.6426C209.741 51.6139 204.896 51.6959 204.896 51.6959C204.896 51.6959 203.867 51.8028 203.789 51.4563C203.789 51.4563 203.658 50.1012 203.71 49.9409C203.71 49.9409 203.71 49.5443 203.472 49.5176C203.472 49.5176 202.446 49.4651 202.418 49.3581C202.418 49.3581 201.865 48.9592 202.023 48.5617C202.023 48.5617 202.209 48.0291 202.762 47.9754C202.762 47.9754 203.604 48.1119 203.604 47.8694C203.604 47.8694 203.658 47.7109 203.658 47.4471C203.658 47.4471 203.71 44.2846 203.684 44.0724C203.684 44.0724 203.763 43.6726 203.419 43.6726C203.419 43.6726 203.051 43.7786 202.814 43.6208C202.814 43.6208 202.182 43.6468 202.051 43.1425C202.051 43.1425 201.944 42.8245 202.103 42.5572C202.103 42.5572 202.392 41.9727 203.236 42.1589C203.236 42.1589 203.71 42.2934 203.763 41.9486L203.736 40.672C203.736 40.672 203.63 40.3282 204.29 40.1411C204.29 40.1411 205.132 40.3807 205.396 39.9557C205.396 39.9557 205.685 39.3705 205.921 39.7671C205.921 39.7671 206.423 40.2464 207.792 40.1954C207.792 40.1954 210.164 40.0074 210.215 40.1126C210.215 40.1126 210.795 40.1954 210.953 40.3807L211.111 40.4057Z" stroke="#12110C" stroke-width="0.0133333"/>
<path d="M211.795 50.877C211.795 50.877 212.113 50.7157 212.324 50.771C212.535 50.8237 215.616 50.745 215.616 50.745C215.616 50.745 216.959 50.8502 217.171 50.6622L217.484 50.5572C217.484 50.5572 217.617 50.3986 217.617 50.1874C217.617 49.9728 217.643 49.2555 217.643 49.2555L217.724 48.992C217.724 48.992 217.696 48.7262 217.724 41.6331C217.724 41.6331 217.827 41.078 217.484 40.7307C217.484 40.7307 217.484 40.5202 217.589 40.5454C217.696 40.5739 217.643 40.5739 217.643 40.5739C217.643 40.5739 218.117 40.4384 218.195 40.6245C218.195 40.6245 218.407 41.2598 218.222 41.6331C218.222 41.6331 218.169 42.4045 218.567 42.4045C218.567 42.4045 218.723 42.5649 219.039 42.4839C219.039 42.4839 219.724 42.5649 219.724 42.7752C219.724 42.7752 219.724 43.2553 219.249 43.1753L218.616 43.2268C218.616 43.2268 218.195 43.3088 218.248 43.8115C218.302 44.3164 218.222 47.9289 218.222 47.9289C218.222 47.9289 218.222 48.3557 218.882 48.3289C218.882 48.3289 219.697 48.3014 219.697 48.5392C219.697 48.5392 219.907 49.0702 219.329 49.098C219.329 49.098 218.222 49.0702 218.302 49.3883C218.302 49.3883 218.222 50.1339 218.169 50.2649C218.169 50.2649 218.277 50.877 218.142 50.984C218.142 50.984 218.065 51.3278 217.354 51.2753C217.354 51.2753 212.825 51.2493 212.113 51.302C212.113 51.302 211.69 51.2493 211.795 50.877Z" fill="white"/>
<path d="M210.981 50.3727C210.981 50.3727 211.428 50.4512 211.428 50.877C211.428 51.301 211.454 51.5406 211.19 51.5933C210.927 51.6466 210.638 51.5683 210.56 51.2233C210.479 50.877 210.611 50.4512 210.981 50.3727Z" fill="white"/>
<path d="M211.507 50.1606C211.507 50.1606 211.98 49.8399 212.165 49.8953C212.165 49.8953 214.561 50.0529 215.3 49.9226C216.037 49.7891 215.589 49.8953 215.589 49.8953C215.589 49.8953 216.222 49.8953 216.405 49.6546C216.405 49.6546 216.59 49.6036 216.695 49.7891L217.088 50.2157C217.088 50.2157 217.118 50.4787 216.669 50.4519C216.669 50.4519 212.374 50.4519 212.244 50.4787C212.244 50.4787 211.428 50.6097 211.507 50.1606Z" fill="white"/>
<path d="M211.506 50.1607C211.506 50.1607 211.979 49.8399 212.164 49.8944C212.164 49.8944 214.562 50.0529 215.3 49.9227C216.038 49.7884 215.589 49.8944 215.589 49.8944C215.589 49.8944 216.223 49.8944 216.405 49.6529C216.405 49.6529 216.59 49.6031 216.696 49.7884L217.089 50.2157C217.089 50.2157 217.118 50.4797 216.67 50.452C216.67 50.452 212.375 50.452 212.243 50.4797C212.243 50.4797 211.427 50.6107 211.506 50.1607Z" stroke="#12110C" stroke-width="0.016"/>
<path d="M205.265 40.7315C205.265 40.7315 205.45 40.7315 205.423 41.0505L205.369 49.071C205.369 49.071 205.45 49.6036 205.002 49.9476C205.002 49.9476 204.763 50.2389 204.763 49.7891L204.871 41.6081C204.871 41.6081 204.896 40.9968 205.265 40.7315Z" fill="white"/>
<path d="M205.265 40.7307C205.265 40.7307 205.45 40.7307 205.425 41.0496L205.369 49.072C205.369 49.072 205.45 49.6047 205.001 49.9487C205.001 49.9487 204.761 50.24 204.761 49.7899L204.869 41.6081C204.869 41.6081 204.895 40.9961 205.265 40.7307Z" stroke="#12110C" stroke-width="0.016"/>
<path d="M204.843 40.7849C204.843 40.7849 204.527 41.3702 204.554 41.504L204.527 43.2812C204.527 43.2812 204.501 44.4234 204.527 44.5569C204.554 44.6889 204.501 48.036 204.501 48.036C204.501 48.036 204.474 48.6719 204.501 48.8857V50.3193C204.501 50.3193 204.448 50.9579 204.921 50.7959C204.921 50.7959 209.558 50.6909 209.848 50.7717C209.848 50.7717 210.268 50.8504 210.112 51.0632C210.112 51.0632 210.112 51.2504 209.82 51.1959C209.82 51.1959 207.634 51.407 205.66 51.3287C205.66 51.3287 204.343 51.407 204.262 51.2504C204.262 51.2504 204.053 51.2235 204.053 50.4521C204.053 50.4521 204.053 49.7367 204.001 49.6038C204.001 49.6038 204.053 49.2272 203.395 49.1504C203.395 49.1504 202.473 49.3107 202.447 48.7531C202.447 48.7531 202.577 48.3548 203.474 48.4066C203.474 48.4066 204.132 48.5134 204.001 47.9808L204.079 44.0526C204.079 44.0526 204.16 43.3589 203.711 43.3312C203.711 43.3312 203.291 43.3097 203.157 43.3589C203.157 43.3589 202.394 43.3589 202.447 42.9107C202.447 42.9107 202.71 42.4313 203.474 42.5381C203.474 42.5381 204.053 42.6436 204.079 41.9813C204.079 41.9813 204.053 40.6256 204.368 40.5739C204.368 40.5739 205.028 40.5979 204.843 40.7849Z" fill="white"/>
<path d="M205.632 49.5753C205.632 49.5753 206.002 49.9718 206.609 49.9486L210.188 50.0004C210.188 50.0004 210.585 50.0287 210.56 50.2389C210.56 50.2389 210.504 50.5572 210.032 50.4512L205.712 50.3986L205.237 50.4277C205.237 50.4277 204.92 50.3727 205.423 49.7624L205.632 49.5753Z" fill="white"/>
<path d="M205.632 49.5746C205.632 49.5746 206.001 49.972 206.609 49.9477L210.189 50.0005C210.189 50.0005 210.585 50.028 210.561 50.239C210.561 50.239 210.506 50.5581 210.034 50.453L205.711 50.4003L205.236 50.4278C205.236 50.4278 204.92 50.3738 205.422 49.7617L205.632 49.5746Z" stroke="#12110C" stroke-width="0.016"/>
<path d="M216.695 49.228C216.695 49.228 217.011 49.8401 217.17 49.9236C217.17 49.9236 217.459 50.2659 217.381 49.6556L217.433 42.0056C217.433 42.0056 217.353 41.7393 217.433 41.316L217.118 40.7315C217.118 40.7315 216.774 40.4662 216.774 40.8902L216.722 49.0453L216.695 49.228Z" fill="white"/>
<path d="M216.694 49.2289C216.694 49.2289 217.012 49.84 217.171 49.9245C217.171 49.9245 217.46 50.2676 217.382 49.6557L217.434 42.0038C217.434 42.0038 217.354 41.7392 217.434 41.316L217.118 40.7308C217.118 40.7308 216.773 40.4661 216.773 40.8901L216.721 49.046L216.694 49.2289Z" stroke="#12110C" stroke-width="0.016"/>
<path d="M210.848 45.5912C210.848 45.5912 210.875 46.2265 210.795 46.8361C210.752 47.173 210.901 48.7246 210.768 49.5202C210.768 49.5202 210.744 49.7865 210.188 49.5487C210.188 49.5487 206.818 49.627 206.713 49.5202C206.713 49.5202 205.791 49.5487 205.712 49.0694C205.712 49.0694 205.844 45.4309 205.765 45.2956C205.765 45.2956 205.712 43.3044 205.765 43.1191C205.765 43.1191 205.844 41.2866 205.791 41.0744C205.791 41.0744 205.818 40.6494 205.738 40.4358C205.738 40.4358 205.738 40.1703 206.187 40.329C206.187 40.329 206.343 40.6221 207.213 40.4918C207.213 40.4918 207.846 40.5971 208.452 40.5168C208.452 40.5168 209.794 40.4108 210.138 40.5168C210.138 40.5168 210.665 40.4108 210.821 40.9969L210.795 42.6424L210.952 43.1734L211.137 43.0414L211.215 42.6424L211.242 40.8891C211.242 40.8891 211.347 40.5693 211.77 40.5168C211.77 40.5168 212.428 40.4358 212.535 40.4918C212.64 40.5428 214.06 40.6221 214.457 40.5428C214.851 40.4633 214.929 40.8081 216.117 40.1988C216.117 40.1988 216.433 40.2255 216.433 40.4358C216.433 40.4358 216.325 42.6968 216.433 43.1191C216.433 43.1191 216.433 47.2619 216.351 47.5541L216.405 48.8822C216.405 48.8822 216.457 49.4669 215.537 49.5202C215.537 49.5202 216.117 49.6002 212.479 49.4942C212.479 49.4942 211.901 49.4669 211.269 49.7582C211.269 49.7582 211.137 49.7322 211.137 49.3874C211.137 49.3874 211.242 48.1402 211.137 46.9161L211.086 45.5621L210.848 45.5912Z" fill="white"/>
<path d="M208.477 43.707C208.477 43.707 208.557 45.6717 208.477 45.937L208.452 46.363C208.452 46.363 208.557 46.6533 208.715 46.7611C208.715 46.7611 208.847 47.1317 208.53 47.1059C208.53 47.1059 207.873 47.0524 207.715 47.0776C207.715 47.0776 207.345 47.0776 207.715 46.6024C207.715 46.6024 207.846 46.4136 207.819 45.937C207.819 45.937 207.819 43.707 207.873 43.5752C207.873 43.5752 207.925 43.2812 207.74 43.2012L207.423 43.2287L207.03 43.6002C207.03 43.6002 206.95 44.0003 206.765 43.5752V43.3607L207.004 42.7236L207.162 42.6959C207.162 42.6959 207.398 42.8556 207.608 42.9106H208.847L209.294 42.6959C209.294 42.6959 209.478 42.7236 209.428 42.9624C209.428 42.9624 209.505 43.5752 209.163 43.6529C209.163 43.6529 208.952 43.5752 208.847 43.2812C208.847 43.2812 208.505 43.0969 208.477 43.707Z" fill="#12110C"/>
<path d="M214.298 42.9899C214.298 42.9899 213.298 42.9096 213.274 43.9983C213.274 43.9983 213.165 44.7439 214.273 45.2224C214.273 45.2224 215.09 45.6189 215.035 46.1232C215.035 46.1232 214.93 47.0266 214.061 46.5756C214.061 46.5756 213.64 46.3618 213.668 46.1232C213.668 46.1232 213.534 45.8302 213.377 45.8843C213.377 45.8843 213.191 45.9362 213.274 46.8136C213.274 46.8136 213.274 47.1592 213.668 46.8136L213.876 46.8679C213.876 46.8679 214.588 47.4522 215.193 46.7335C215.193 46.7335 215.852 46.1232 215.377 45.3802C215.377 45.3802 215.035 44.8509 214.43 44.5846C214.43 44.5846 213.85 44.3165 213.72 43.8655C213.72 43.8655 213.904 43.0674 214.614 43.4924C214.614 43.4924 214.878 43.8114 215.035 43.8655C215.035 43.8655 215.246 43.8655 215.193 43.3854L215.143 42.9899C215.143 42.9899 215.09 42.6941 214.72 42.9899C214.72 42.9899 214.377 43.1209 214.298 42.9899Z" fill="#12110C"/>
<path d="M211.085 42.4305C211.269 42.5658 211.295 42.8306 211.295 42.8306C211.822 44.2373 212.271 46.2843 212.271 46.2843C212.402 46.5473 212.639 46.7611 212.639 46.7611C213.087 46.9196 212.639 47.0516 212.639 47.0516C212.455 47.1326 211.85 47.0274 211.85 47.0274C211.532 46.9706 211.663 46.8671 211.663 46.8671C211.796 46.7344 211.69 46.2015 211.69 46.2015C211.663 45.9913 211.428 45.6449 211.428 45.6449C211.323 45.5912 211.138 45.8302 211.138 45.8302C211.138 45.8302 210.849 45.937 210.821 45.8302C210.795 45.7222 210.611 45.6217 210.611 45.6217C210.294 45.6217 210.164 46.4136 210.164 46.4136C210.348 47.0784 210.164 46.9706 210.164 46.9706C210.007 47.1853 209.505 47.0274 209.505 47.0274C209.268 46.9706 209.428 46.7853 209.428 46.7853C209.716 46.7344 209.794 46.4136 209.794 46.4136C209.927 46.2283 210.768 42.7763 210.768 42.7763C210.849 42.6158 210.9 42.2978 211.085 42.4305ZM210.666 44.183C210.638 44.3165 210.453 45.0604 210.453 45.0604L210.611 45.3284C210.611 45.3284 211.033 45.3527 211.19 45.3527C211.347 45.3527 211.375 45.2224 211.375 45.0869C211.375 44.9554 211.085 44.1588 211.085 44.1588L210.952 43.9993L210.666 44.183Z" fill="#12110C"/>
<path d="M203.95 35.9994C203.95 35.9994 203.66 36.931 202.369 35.9726L197.944 35.8656C197.944 35.8656 197.365 36.0537 197.285 35.4418C197.285 35.4418 197.391 34.2212 197.337 34.1142C197.337 34.1142 197.365 33.7676 196.784 33.7676C196.784 33.7676 195.89 33.8762 195.865 33.079C195.865 33.079 195.706 32.2264 196.943 32.2557C196.943 32.2557 197.337 32.441 197.365 31.9361C197.365 31.9361 197.312 28.4837 197.337 28.2166C197.337 28.2166 197.444 27.9011 196.838 27.8467C196.838 27.8467 195.968 28.0312 195.865 27.4468C195.865 27.4468 195.811 26.572 196.389 26.5177C196.389 26.5177 197.101 26.572 197.233 26.3882C197.233 26.3882 197.391 26.4909 197.365 25.8529L197.391 24.7652C197.391 24.7652 197.471 24.473 197.916 24.4997C197.916 24.4997 198.735 24.5522 198.841 24.473C198.841 24.473 199.025 24.2352 199.075 24.1272C199.075 24.1272 199.499 24.1022 199.578 24.2057C199.578 24.2057 200.209 24.6333 202.608 24.473C202.608 24.473 202.975 24.473 203.054 24.58C203.054 24.58 203.501 24.9246 203.765 24.5522C203.765 24.5522 204.16 24.473 205.346 24.4997C205.346 24.4997 206.634 24.8445 207.531 24.1022L207.82 24.1567C207.82 24.1567 208.188 24.7652 208.454 24.58C208.454 24.58 209.243 24.4997 209.376 24.66C209.376 24.66 209.64 25.0583 209.505 26.0952C209.505 26.0952 209.349 26.546 210.112 26.546C210.112 26.546 210.981 26.3882 210.877 27.208C210.877 27.208 211.114 28.1382 209.665 28.0062C209.665 28.0062 209.48 28.2725 209.505 28.458C209.505 28.458 209.48 31.4843 209.454 31.8316C209.454 31.8316 209.429 32.3067 210.06 32.2825C210.06 32.2825 210.903 32.2264 210.929 32.9998C210.929 32.9998 211.034 34.0082 209.823 33.8211C209.823 33.8211 209.454 33.8762 209.4 34.1142L209.349 35.4418C209.349 35.4418 209.376 36.1062 208.636 35.9476C208.531 35.9476 204.53 36.0261 204.186 35.9219C204.186 35.9219 204.002 35.8951 203.95 35.9994Z" fill="#12110C"/>
<path d="M203.95 36.0001C203.95 36.0001 203.66 36.932 202.369 35.9734L197.944 35.8666C197.944 35.8666 197.364 36.0544 197.284 35.4418C197.284 35.4418 197.391 34.2211 197.337 34.1142C197.337 34.1142 197.364 33.7686 196.783 33.7686C196.783 33.7686 195.889 33.8771 195.864 33.0798C195.864 33.0798 195.706 32.2264 196.943 32.2557C196.943 32.2557 197.337 32.4412 197.364 31.9369C197.364 31.9369 197.311 28.4829 197.337 28.2166C197.337 28.2166 197.444 27.9001 196.837 27.8467C196.837 27.8467 195.967 28.0313 195.864 27.446C195.864 27.446 195.81 26.571 196.389 26.5177C196.389 26.5177 197.1 26.571 197.233 26.3867C197.233 26.3867 197.391 26.4909 197.364 25.8529L197.391 24.7642C197.391 24.7642 197.47 24.4722 197.916 24.4997C197.916 24.4997 198.734 24.5514 198.84 24.4722C198.84 24.4722 199.025 24.2352 199.075 24.1272C199.075 24.1272 199.498 24.1014 199.578 24.2057C199.578 24.2057 200.208 24.6325 202.608 24.4722C202.608 24.4722 202.975 24.4722 203.054 24.579C203.054 24.579 203.501 24.9238 203.765 24.5514C203.765 24.5514 204.16 24.4722 205.346 24.4997C205.346 24.4997 206.635 24.8427 207.531 24.1014L207.821 24.1557C207.821 24.1557 208.189 24.7642 208.454 24.579C208.454 24.579 209.243 24.4997 209.377 24.6582C209.377 24.6582 209.64 25.0575 209.506 26.0934C209.506 26.0934 209.349 26.546 210.112 26.546C210.112 26.546 210.983 26.3867 210.877 27.2073C210.877 27.2073 211.114 28.1381 209.666 28.0054C209.666 28.0054 209.48 28.2717 209.506 28.4579C209.506 28.4579 209.48 31.4843 209.455 31.8309C209.455 31.8309 209.429 32.3074 210.06 32.2834C210.06 32.2834 210.903 32.2264 210.93 33.0005C210.93 33.0005 211.034 34.0081 209.823 33.8211C209.823 33.8211 209.455 33.8771 209.401 34.1142L209.349 35.4418C209.349 35.4418 209.377 36.1071 208.637 35.9484C208.532 35.9484 204.53 36.0261 204.186 35.9219C204.186 35.9219 204.002 35.8959 203.95 36.0001Z" stroke="#12110C" stroke-width="0.0133333"/>
<path d="M198.972 25.0582C198.972 25.0582 199.025 25.5883 199.025 25.721C199.025 25.8538 198.944 33.397 198.944 33.397C198.944 33.397 199.025 33.9831 198.523 34.2736C198.523 34.2736 198.392 34.3279 198.365 33.9563L198.419 25.9883C198.419 25.9883 198.471 25.0047 198.972 25.0582Z" fill="white"/>
<path d="M198.973 25.0574C198.973 25.0574 199.026 25.5874 199.026 25.7202C199.026 25.8529 198.945 33.3969 198.945 33.3969C198.945 33.3969 199.026 33.983 198.523 34.2753C198.523 34.2753 198.392 34.3288 198.365 33.9572L198.417 25.9882C198.417 25.9882 198.47 25.0046 198.973 25.0574Z" stroke="#12110C" stroke-width="0.016"/>
<path d="M198.102 34.353C198.102 34.353 198.154 26.8633 198.129 26.7296C198.102 26.5986 198.154 26.8373 198.154 26.8373C198.154 26.8373 198.077 25.5374 198.419 25.0048C198.419 25.0048 198.313 24.5531 197.707 25.1099L197.683 26.1995C197.683 26.1995 197.683 26.8106 197.128 26.7838C197.128 26.7838 196.496 26.7563 196.205 27.0503C196.205 27.0503 196.047 27.6337 196.652 27.5287C196.652 27.5287 197.602 27.5287 197.654 27.9242L197.602 31.9359C197.602 31.9359 197.813 32.5997 197.074 32.5997C197.074 32.5997 196.179 32.5488 196.205 33.1066C196.205 33.1066 196.389 33.5849 197.155 33.4246C197.155 33.4246 197.707 33.5314 197.683 34.0599V35.0718C197.683 35.0718 197.627 35.4709 198.154 35.4951H202.264C202.264 35.4951 202.474 35.5217 202.474 35.2554C202.474 35.2554 202.447 35.0459 202.133 35.0459L198.71 34.9908C198.71 34.9908 198.154 35.1771 198.102 34.353Z" fill="white"/>
<path d="M198.814 34.4072C198.814 34.4072 198.709 34.7804 199.103 34.6984H201.816L202.553 34.8572C202.553 34.8572 203.319 34.6717 202.553 34.2459C202.553 34.2459 200.13 34.2744 199.919 34.2209C199.919 34.2209 199.42 34.0883 199.314 34.0614C199.314 34.0614 199.05 33.9564 198.814 34.4072Z" fill="white"/>
<path d="M198.813 34.4063C198.813 34.4063 198.708 34.7812 199.102 34.6976H201.816L202.554 34.8579C202.554 34.8579 203.32 34.6726 202.554 34.246C202.554 34.246 200.13 34.2743 199.919 34.2193C199.919 34.2193 199.419 34.0873 199.313 34.0615C199.313 34.0615 199.049 33.9555 198.813 34.4063Z" stroke="#12110C" stroke-width="0.016"/>
<path d="M203.318 34.7805C203.318 34.7805 202.817 34.7805 202.843 35.4407C202.843 35.4407 202.896 35.9484 203.422 35.9484C203.422 35.9484 203.896 35.8658 203.845 35.3373C203.845 35.3373 203.554 34.6719 203.318 34.7805Z" fill="white"/>
<path d="M203.686 34.5123C203.686 34.5123 203.922 34.2468 204.082 34.2468C204.082 34.2468 206.715 34.4866 207.162 34.1683C207.162 34.1683 207.559 34.0891 207.663 34.1683C207.663 34.1683 208.058 34.4866 208.058 34.6719C208.058 34.6719 208.032 34.9132 207.559 34.7804C207.559 34.7804 204.58 34.8054 204.424 34.8054C204.424 34.8054 203.606 34.9907 203.686 34.5123Z" fill="white"/>
<path d="M203.685 34.5124C203.685 34.5124 203.922 34.2461 204.081 34.2461C204.081 34.2461 206.715 34.4867 207.162 34.1684C207.162 34.1684 207.56 34.0884 207.663 34.1684C207.663 34.1684 208.058 34.4867 208.058 34.6727C208.058 34.6727 208.033 34.9142 207.56 34.7805C207.56 34.7805 204.581 34.8065 204.423 34.8065C204.423 34.8065 203.606 34.9917 203.685 34.5124Z" stroke="#12110C" stroke-width="0.016"/>
<path d="M204.107 35.3097C204.107 35.3097 204.107 35.0984 204.474 35.0984L208.164 35.0709C208.164 35.0709 208.505 35.2544 208.505 34.6191C208.505 34.6191 208.64 31.723 208.652 28.5354C208.658 27.5873 208.699 26.5918 208.663 25.6693C208.663 25.6693 208.584 25.272 208.479 25.19C208.479 25.19 208.479 24.7651 208.929 24.9262C208.929 24.9262 209.321 24.9514 209.216 25.5615L209.242 26.4916C209.242 26.4916 209.164 26.8899 209.875 26.7839C209.875 26.7839 210.585 26.8899 210.611 27.1554C210.611 27.1554 210.824 27.688 209.982 27.6338H209.376C209.376 27.6338 209.112 27.7925 209.191 28.1123L209.112 31.9625C209.112 31.9625 209.058 32.6264 209.692 32.6021C209.692 32.6021 210.35 32.5746 210.48 32.7866C210.48 32.7866 210.93 33.4512 209.954 33.3979C209.954 33.3979 209.348 33.3702 209.216 33.4762C209.216 33.4762 209.112 33.6115 209.033 34.8581C209.033 34.8581 209.085 35.602 208.532 35.5217C208.532 35.5217 204.871 35.5735 204.53 35.495C204.53 35.495 204.16 35.602 204.107 35.3097Z" fill="white"/>
<path d="M199.365 24.8169L199.288 33.3435C199.288 33.3435 199.262 33.7392 199.92 33.8192C199.92 33.8192 200.685 33.8995 200.868 33.8192C200.868 33.8192 201.367 33.7935 202.659 33.847C202.659 33.847 202.975 34.164 203 33.7677C203 33.7677 203.212 26.8606 203.106 25.4272C203.106 25.4272 203.081 24.8169 202.631 24.7901C202.631 24.7901 200.631 24.9488 200.446 24.7901L199.657 24.5771C199.657 24.5771 199.339 24.6023 199.365 24.8169Z" fill="white"/>
<path d="M207.715 25.1358L207.689 33.5296C207.689 33.5296 207.9 34.2754 208.244 34.196C208.244 34.196 208.296 34.0357 208.322 33.7684L208.429 25.7729C208.429 25.7729 208.164 24.4978 207.715 25.1358Z" fill="white" stroke="#12110C" stroke-width="0.016"/>
<path d="M207.715 25.1358L207.689 33.5296C207.689 33.5296 207.9 34.2754 208.244 34.196C208.244 34.196 208.296 34.0357 208.322 33.7684L208.429 25.7729C208.429 25.7729 208.164 24.4978 207.715 25.1358Z" stroke="#12110C" stroke-width="0.016"/>
<path d="M203.53 25.2073C203.53 25.2073 203.45 29.2173 203.475 29.3518L203.425 32.7255L203.319 33.8909C203.319 33.8909 203.475 34.1331 203.607 33.9727C203.607 33.9727 204.451 33.7614 204.978 33.8401C204.978 33.8401 206.664 34.0004 207.005 33.7339C207.005 33.7339 207.269 33.8659 207.348 33.4408C207.348 33.4408 207.452 26.0054 207.4 25.8719C207.4 25.8719 207.506 24.8108 207.452 24.7057C207.452 24.7057 207.426 24.4642 206.98 24.6755C206.98 24.6755 207.032 24.89 204.531 24.8108C204.531 24.8108 203.582 24.7832 203.53 25.2073Z" fill="white"/>
<path d="M202.716 27.664L202.477 28.1708C202.477 28.1708 201.9 30.7456 201.585 31.2757C201.585 31.2757 201.532 31.8085 201.084 31.3825C201.084 31.3825 200.056 28.1166 200.003 28.0098L199.661 27.7708C199.661 27.7708 199.453 27.4787 199.82 27.4527L200.794 27.4787C200.794 27.4787 201.11 27.7433 200.689 28.0388C200.689 28.0388 200.741 28.4631 201.294 30.081C201.294 30.081 201.452 30.6921 201.636 30.2403L202.164 28.3544L202.005 27.7968C202.005 27.7968 201.846 27.5312 202.085 27.5055C202.085 27.5055 202.638 27.4527 202.716 27.664Z" fill="#12110C"/>
<path d="M204.245 28.0898L204.217 30.9051L204.14 31.1171C204.14 31.1171 203.876 31.4611 204.06 31.4887C204.06 31.4887 203.825 31.649 205.744 31.6747C205.744 31.6747 206.484 31.8067 206.298 30.8508C206.298 30.8508 206.22 30.5058 205.955 31.0111C205.955 31.0111 205.876 31.4342 204.93 31.3024C204.93 31.3024 204.719 31.1171 204.719 30.9051V29.7354C204.719 29.7354 204.691 29.4422 205.139 29.4725C205.139 29.4725 205.639 29.7897 205.719 29.6552C205.719 29.6552 205.903 29.2319 205.719 28.9656C205.719 28.9656 205.481 28.9406 205.455 29.0466C205.455 29.0466 205.297 29.3637 204.849 29.1776C204.849 29.1776 204.639 28.7536 204.771 28.4078C204.771 28.4078 204.719 27.7434 205.167 27.7975C205.167 27.7975 205.693 27.9027 205.744 28.064C205.744 28.064 205.876 28.3838 206.009 28.0115L205.876 27.558C205.876 27.558 205.799 27.3717 205.667 27.4252C205.667 27.4252 204.771 27.558 204.664 27.4502L203.953 27.5312C203.953 27.5312 203.849 27.7975 204.166 27.9287C204.166 27.9287 204.245 27.983 204.245 28.0898Z" fill="#12110C"/>
</g>
<rect x="22.4688" y="214.462" width="209.131" height="9.43448" rx="4.71724" fill="#A81D28"/>
<rect x="22.4688" y="63.5103" width="75.4759" height="9.43448" rx="4.71724" fill="black" fill-opacity="0.5"/>
<rect x="22.4688" y="85.524" width="239.007" height="9.43448" rx="4.71724" fill="black" fill-opacity="0.2"/>
<rect x="22.4688" y="107.538" width="139.945" height="9.43448" rx="4.71724" fill="black" fill-opacity="0.2"/>
<rect x="174.993" y="107.538" width="86.4828" height="9.43448" rx="4.71724" fill="black" fill-opacity="0.2"/>
<rect x="22.4688" y="129.552" width="88.0552" height="9.43448" rx="4.71724" fill="black" fill-opacity="0.2"/>
<rect x="22.4688" y="151.565" width="176.11" height="9.43448" rx="4.71724" fill="black" fill-opacity="0.2"/>
</svg>
