<svg width="313" height="171" viewBox="0 0 313 171" fill="none" xmlns="http://www.w3.org/2000/svg">
<g filter="url(#filter0_d_9_454)">
<path d="M107.942 49.6313C107.942 52.2849 107.918 54.5661 107.87 56.4749H111.569L111.931 54.0656C113.164 54.0656 114.361 54.3566 115.522 54.9385V61.9218L113.128 62.0265C112.548 61.1885 112.209 60.4553 112.113 59.8268H107.833C107.785 63.0857 107.761 65.5414 107.761 67.1941H113.962L114.76 64.1564C116.259 64.1564 117.395 64.2263 118.169 64.3659C118.532 65.6927 118.713 66.9032 118.713 67.9972C118.713 69.068 118.677 69.9292 118.604 70.581H100.617L100.29 68.6606C101.862 68.0787 102.877 67.7412 103.336 67.648C103.312 66.2747 103.288 64.3426 103.264 61.852C103.167 56.2654 103.083 52.0405 103.01 49.1774L100 48.2696L100.29 46.1397H118.096C118.169 46.7682 118.205 47.5596 118.205 48.514C118.205 49.4451 118.024 50.7486 117.661 52.4246C116.912 52.6574 115.775 52.7737 114.252 52.7737L113.418 49.6313H107.942Z" fill="white"/>
<path d="M133.681 52.4246C136.098 52.4246 137.851 52.9949 138.939 54.1355C140.027 55.2761 140.571 56.8706 140.571 58.919C140.571 60.9674 140.45 63.7374 140.208 67.2291L143.073 67.5433C143.073 68.4977 142.795 69.5102 142.239 70.581H133.209L132.883 68.6606C134.019 68.2183 135.071 67.8692 136.038 67.6131C135.965 64.9362 135.893 62.6899 135.82 60.8743C135.748 59.0354 135.566 57.79 135.276 57.1383C134.986 56.4865 134.346 56.1606 133.354 56.1606C131.855 56.1606 130.513 56.4167 129.329 56.9288C129.305 57.9297 129.232 59.5708 129.111 61.852C129.015 64.1099 128.954 65.9022 128.93 67.2291L131.759 67.5433C131.759 68.4977 131.481 69.5102 130.925 70.581H121.894L121.568 68.6606C122.777 68.2183 123.865 67.8692 124.832 67.6131C124.808 66.2165 124.723 64.2845 124.578 61.817C124.457 59.3496 124.385 57.5223 124.36 56.3352C123.466 56.2421 122.511 56.0675 121.495 55.8115L121.677 53.2975C123.369 52.8552 125.279 52.6341 127.407 52.6341C127.673 52.797 128.035 53.2975 128.495 54.1355C129.317 53.7398 130.32 53.3557 131.505 52.9832C132.689 52.6108 133.415 52.4246 133.681 52.4246Z" fill="white"/>
<path d="M157.297 53.926L157.333 55.0084C157.333 56.824 157.188 58.0112 156.898 58.5698C156.1 58.8492 154.988 58.9888 153.562 58.9888L152.401 55.4623C152.087 55.3459 151.652 55.2877 151.096 55.2877C150.54 55.2877 150.08 55.4507 149.718 55.7765C149.379 56.1024 149.21 56.4865 149.21 56.9288C149.21 57.371 149.391 57.7784 149.754 58.1508C150.117 58.5 150.491 58.7793 150.878 58.9888C151.265 59.1983 151.821 59.4777 152.546 59.8268C153.296 60.1527 153.852 60.4088 154.215 60.595C154.601 60.7812 155.085 61.0605 155.665 61.433C156.27 61.8054 156.729 62.1546 157.043 62.4804C157.817 63.365 158.204 64.331 158.204 65.3785C158.204 67.1709 157.491 68.5559 156.064 69.5335C154.662 70.5112 152.933 71 150.878 71C149.79 71 148.593 70.8138 147.288 70.4413C146.006 70.0689 144.919 69.5684 144.024 68.9399C144.024 67.264 144.193 65.7044 144.532 64.2612C145.499 64.1448 146.285 64.0866 146.889 64.0866C147.493 64.0866 147.904 64.0982 148.122 64.1215L148.557 67.5084C149.162 67.7179 149.887 67.8226 150.733 67.8226C151.579 67.8226 152.244 67.6597 152.728 67.3338C153.235 67.0079 153.489 66.554 153.489 65.9721C153.489 65.3669 153.211 64.8664 152.655 64.4707C152.099 64.075 151.338 63.6676 150.37 63.2486C149.403 62.8063 148.654 62.4455 148.122 62.1662C147.59 61.8636 147.022 61.4795 146.417 61.014C145.184 60.1061 144.568 58.9888 144.568 57.662C144.568 56.0093 145.16 54.7291 146.345 53.8212C147.554 52.8901 149.174 52.4246 151.205 52.4246C153.235 52.4246 155.266 52.925 157.297 53.926Z" fill="white"/>
<path d="M167.892 52.7039C168.351 52.7039 168.642 52.7155 168.762 52.7388C168.762 53.8794 168.557 54.9385 168.146 55.9162C168.049 60.9441 167.989 64.7151 167.965 67.2291L170.793 67.5433C170.793 68.4977 170.515 69.5102 169.959 70.581H160.929L160.603 68.6606C162.102 68.1252 163.19 67.7761 163.867 67.6131L163.468 56.3003C162.041 56.1606 160.99 55.986 160.313 55.7765C160.313 55.1946 160.397 54.3566 160.566 53.2626C161.993 52.8901 164.435 52.7039 167.892 52.7039ZM167.892 46.1047C168.11 47.1522 168.218 47.9553 168.218 48.514C168.218 49.0493 168.17 49.6546 168.073 50.3296C167.106 50.5391 166.284 50.6439 165.607 50.6439C164.955 50.6439 164.157 50.6089 163.214 50.5391C162.996 49.4916 162.887 48.7002 162.887 48.1648C162.887 47.6061 162.936 46.9893 163.032 46.3142C164 46.1047 164.809 46 165.462 46C166.139 46 166.949 46.0349 167.892 46.1047Z" fill="white"/>
<path d="M183.581 52.4246C185.999 52.4246 187.752 52.9949 188.84 54.1355C189.928 55.2761 190.472 56.8706 190.472 58.919C190.472 60.9674 190.351 63.7374 190.109 67.2291L192.974 67.5433C192.974 68.4977 192.696 69.5102 192.14 70.581H183.11L182.783 68.6606C183.92 68.2183 184.971 67.8692 185.938 67.6131C185.866 64.9362 185.793 62.6899 185.721 60.8743C185.648 59.0354 185.467 57.79 185.177 57.1383C184.887 56.4865 184.246 56.1606 183.255 56.1606C181.756 56.1606 180.414 56.4167 179.229 56.9288C179.205 57.9297 179.133 59.5708 179.012 61.852C178.915 64.1099 178.854 65.9022 178.83 67.2291L181.659 67.5433C181.659 68.4977 181.381 69.5102 180.825 70.581H171.795L171.468 68.6606C172.677 68.2183 173.765 67.8692 174.732 67.6131C174.708 66.2165 174.624 64.2845 174.478 61.817C174.358 59.3496 174.285 57.5223 174.261 56.3352C173.366 56.2421 172.411 56.0675 171.396 55.8115L171.577 53.2975C173.27 52.8552 175.18 52.6341 177.307 52.6341C177.573 52.797 177.936 53.2975 178.395 54.1355C179.217 53.7398 180.22 53.3557 181.405 52.9832C182.59 52.6108 183.315 52.4246 183.581 52.4246Z" fill="white"/>
<path d="M200.67 71C198.615 71 197.019 70.5926 195.883 69.7779C194.771 68.9632 194.215 67.5899 194.215 65.6578C194.215 63.8189 194.879 62.3175 196.209 61.1536C196.983 60.4786 198.059 60.0829 199.437 59.9665C200.815 59.8501 202.713 59.7919 205.13 59.7919V59.2332C205.13 57.8133 204.889 56.7775 204.405 56.1257C203.946 55.4507 203.124 55.1131 201.939 55.1131C201.335 55.1131 200.791 55.2295 200.307 55.4623L199.437 58.5L196.753 58.4302C196.149 57.5456 195.822 56.1373 195.774 54.2053C196.257 53.9725 197.394 53.6234 199.183 53.1578C200.972 52.669 202.12 52.4246 202.628 52.4246C205.239 52.4246 207.137 52.9483 208.322 53.9958C209.506 55.02 210.099 56.6611 210.099 58.919C210.099 61.1536 209.99 64.1099 209.772 67.7877C211.15 67.9041 212.214 68.102 212.964 68.3813C212.988 68.6606 213 68.9981 213 69.3939L212.964 70.162C211.223 70.7207 209.47 71 207.705 71C207.246 71 206.907 70.9884 206.69 70.9651C206.327 70.2668 206.11 69.4288 206.037 68.4511H205.856C205.396 68.8701 204.586 69.4055 203.426 70.0573C202.29 70.6858 201.371 71 200.67 71ZM198.856 65.8673C198.856 66.6355 199.098 67.2058 199.582 67.5782C200.09 67.9274 200.658 68.102 201.286 68.102C201.915 68.102 202.664 67.8343 203.535 67.2989C204.405 66.7402 205.106 66.2398 205.638 65.7975L205.457 62.5852C203.547 62.6783 202.108 62.8529 201.141 63.1089C199.618 63.4115 198.856 64.331 198.856 65.8673Z" fill="white"/>
</g>
<defs>
<filter id="filter0_d_9_454" x="0" y="-54" width="313" height="225" filterUnits="userSpaceOnUse" color-interpolation-filters="sRGB">
<feFlood flood-opacity="0" result="BackgroundImageFix"/>
<feColorMatrix in="SourceAlpha" type="matrix" values="0 0 0 0 0 0 0 0 0 0 0 0 0 0 0 0 0 0 127 0" result="hardAlpha"/>
<feOffset/>
<feGaussianBlur stdDeviation="50"/>
<feComposite in2="hardAlpha" operator="out"/>
<feColorMatrix type="matrix" values="0 0 0 0 0 0 0 0 0 0 0 0 0 0 0 0 0 0 1 0"/>
<feBlend mode="normal" in2="BackgroundImageFix" result="effect1_dropShadow_9_454"/>
<feBlend mode="normal" in="SourceGraphic" in2="effect1_dropShadow_9_454" result="shape"/>
</filter>
</defs>
</svg>
