<svg width="120" height="120" viewBox="0 0 120 120" fill="none" xmlns="http://www.w3.org/2000/svg">
<rect width="120" height="120" rx="60" fill="#111111"/>
<path d="M69.7715 66.1022L69.6937 67.3234H64.9081C64.7265 64.4485 64.3893 62.6421 63.8965 61.9043C63.0146 60.6067 61.4194 59.958 59.1109 59.958H51.2906V78.3525C51.2906 80.8204 51.7704 82.4614 52.7301 83.2756C53.6639 84.0643 55.6741 84.5095 58.7608 84.6113H66.1921C71.3797 84.6113 74.9592 82.4105 76.9305 78.0091C77.553 76.6352 77.968 75.0832 78.1755 73.3532H83C83 76.2536 82.7017 79.3066 82.1051 82.5123L80.9379 89H36L36.6614 84.8021C39.2552 84.8021 40.9542 84.2423 41.7583 83.1229C42.4845 82.1561 42.8477 80.2098 42.8477 77.284V42.403C42.8477 37.4927 41.7194 35.0375 39.4627 35.0375C38.529 35.0375 37.5433 35.152 36.5058 35.381L36.9727 30.6106H67.1647C73.4158 30.6106 78.0977 30.4071 81.2103 30C81.2103 34.0707 80.8082 38.1414 80.0041 42.2122C79.7966 43.179 79.6151 43.9168 79.4594 44.4256H75.4909C75.2315 40.304 74.4274 37.6962 73.0786 36.6022C72.3264 35.9916 71.3408 35.61 70.1217 35.4573C68.9285 35.3047 67.4241 35.2283 65.6084 35.2283H51.2906V55.6455H59.3444C61.9382 55.6455 63.6371 55.0985 64.4412 54.0045C64.96 53.3176 65.375 51.7147 65.6863 49.196L70.4329 49.1578L70.4719 51.1805C70.4719 54.4116 70.2384 59.3855 69.7715 66.1022Z" fill="#31B95F"/>
</svg>
