<svg width="264" height="69" viewBox="0 0 264 69" fill="none" xmlns="http://www.w3.org/2000/svg">
<mask id="mask0_23_6" style="mask-type:luminance" maskUnits="userSpaceOnUse" x="0" y="0" width="264" height="69">
<path d="M0 9.976e-06H264V69H0V9.976e-06Z" fill="white"/>
</mask>
<g mask="url(#mask0_23_6)">
<path d="M107.996 46.7269C107.996 46.1943 107.649 45.8002 106.939 45.6467V45.3021C107.332 45.3021 108.641 45.3547 109.01 45.3547C109.328 45.3547 110.597 45.3021 110.991 45.3021V45.6467C110.332 45.7751 109.986 46.1639 109.986 46.7269V53.488C109.986 55.629 111.163 56.8392 113.624 56.8392C115.745 56.8392 117.396 55.8878 117.396 53.6471V46.7006C117.396 46.1984 117.08 45.8002 116.285 45.6467V45.3021C116.574 45.3021 117.657 45.3547 118.027 45.3547C118.343 45.3547 119.479 45.3021 119.77 45.3021V45.6467C119.003 45.8293 118.662 46.1721 118.662 46.7006V53.2746C118.662 56.2252 116.944 57.9197 113.237 57.9197C109.785 57.9197 107.996 56.3524 107.996 53.5804V46.7269Z" fill="#1D1D1B"/>
<path d="M122.802 57.3897C123.605 57.2403 123.922 56.8339 123.922 56.3358V46.9911C123.922 46.1984 123.5 45.8419 122.78 45.6455V45.3009C123.187 45.3313 123.871 45.3491 124.22 45.3491C124.537 45.3491 125.03 45.3438 125.362 45.3009L133.475 54.8311V46.7006C133.475 46.1997 133.156 45.8015 132.364 45.6455V45.3009C132.655 45.3009 133.699 45.3548 134.07 45.3548C134.393 45.3548 135.511 45.3009 135.806 45.3009V45.6455C135.032 45.8278 134.659 46.1737 134.659 46.7006V57.9195H134.17C133.862 57.849 133.281 57.5185 132.395 56.5476L125.136 48.1004V56.3358C125.136 56.8364 125.425 57.2334 126.217 57.3897V57.7356C125.927 57.7356 124.883 57.6804 124.512 57.6804C124.192 57.6804 123.097 57.7356 122.802 57.7356V57.3897Z" fill="#1D1D1B"/>
<path d="M186.819 54.8697H187.163C187.344 55.568 187.744 56.2046 188.305 56.5724C188.888 56.9831 189.803 57.1795 190.542 57.1795C192.174 57.1795 193.209 56.3719 193.209 55.0937C193.209 53.77 191.884 53.0827 190.296 52.29C189.115 51.6995 186.795 50.7245 186.795 48.4836C186.795 46.3962 188.388 45.0976 190.937 45.0976C192.619 45.0976 193.408 45.5083 194.543 45.4557L194.521 47.9883H194.175C193.721 46.4958 192.364 45.9757 190.879 45.9757C189.217 45.9757 188.596 46.925 188.596 47.8902C188.596 49.2721 189.949 49.9689 191.484 50.6525C193.209 51.42 195.081 52.3897 195.081 54.5488C195.081 56.5931 193.48 58.0733 190.555 58.0733C188.814 58.0733 187.77 57.5768 186.855 57.4643L186.819 54.8697Z" fill="#1D1D1B"/>
<path d="M221.684 52.5916L218.381 47.297C217.818 46.3675 217.386 45.8775 216.757 45.6454V45.302C217.21 45.302 218.432 45.3562 218.78 45.3562C219.094 45.3562 220.413 45.302 220.89 45.302V45.6454C220.467 45.7199 220.269 45.9314 220.269 46.2497C220.269 46.5304 220.461 46.8916 220.653 47.2055C220.841 47.5166 223.089 51.2404 223.089 51.2404L225.435 47.2071C225.672 46.803 225.839 46.4019 225.839 46.1375C225.839 45.8969 225.669 45.6977 225.269 45.6454V45.302C225.666 45.302 226.501 45.3562 226.767 45.3562C227.033 45.3562 227.992 45.302 228.386 45.302V45.6219C227.484 45.9912 226.92 46.7823 226.374 47.6993L223.371 52.7134M223.576 52.0812V56.3109C223.576 56.7301 223.895 57.257 224.618 57.3896V57.7357C224.215 57.7357 222.9 57.6803 222.519 57.6803C222.2 57.6803 220.938 57.7357 220.483 57.7357V57.3896C221.208 57.257 221.556 56.7301 221.556 56.3109V52.2667" fill="#1D1D1B"/>
<path d="M160.304 45.3021H168.05C168.29 45.3021 168.709 45.2746 168.949 45.1709H169.295L169.241 47.6853H168.897C168.603 46.8943 168.297 46.2608 166.797 46.2608H163.434V50.6427H166.026C166.404 50.6427 166.862 50.6108 167.06 50.5638C167.643 50.4366 167.9 50.1127 168.017 49.6164H168.363C168.338 49.9952 168.338 50.8599 168.338 51.1158C168.338 51.373 168.363 52.2831 168.363 52.6954H168.017C167.851 52.2001 167.624 51.8238 167.06 51.6857C166.862 51.6331 166.396 51.5901 166.026 51.5901H163.434V56.7302H167.092C168.69 56.7302 169.154 56.0648 169.551 55.1243L169.893 55.2042L169.551 57.787C168.363 57.6817 167.65 57.6817 166.302 57.6817H162.436C162.064 57.6817 160.697 57.7359 160.3 57.7359V57.3913C160.998 57.2584 161.405 56.9138 161.405 56.2459V46.7395C161.405 46.1502 161.088 45.7821 160.304 45.6508V45.3021Z" fill="#1D1D1B"/>
<path d="M140.52 46.8071C140.52 46.1695 140.139 45.8183 139.393 45.6576V45.3161C139.809 45.3161 141.153 45.3684 141.545 45.3684C141.873 45.3684 143.255 45.3161 143.676 45.3161V45.6576C142.933 45.8183 142.544 46.136 142.544 46.8071V56.2474C142.544 56.8849 142.926 57.232 143.676 57.3896V57.7358C143.256 57.7358 141.931 57.6816 141.545 57.6816C141.211 57.6816 139.809 57.7358 139.392 57.7358V57.3896C140.155 57.2474 140.52 56.914 140.52 56.2474V46.8071Z" fill="#1D1D1B"/>
<path d="M199.281 46.8071C199.281 46.1695 198.896 45.8183 198.151 45.6576V45.3161C198.567 45.3161 199.912 45.3684 200.301 45.3684C200.632 45.3684 202.014 45.3161 202.433 45.3161V45.6576C201.692 45.8183 201.304 46.136 201.304 46.8071V56.2474C201.304 56.8849 201.686 57.232 202.433 57.3896V57.7358C202.017 57.7358 200.693 57.6816 200.301 57.6816C199.973 57.6816 198.567 57.7358 198.151 57.7358V57.3896C198.913 57.2474 199.281 56.914 199.281 56.2474V46.8071Z" fill="#1D1D1B"/>
<path d="M210.048 45.3548C205.802 45.3548 205.122 45.2758 204.254 45.2219L204.261 47.7837H204.607C204.924 46.648 205.557 46.3839 206.376 46.3839H209.04V56.2475C209.04 56.9138 208.675 57.2475 207.911 57.3897V57.7359C208.33 57.7359 209.745 57.6817 210.071 57.6817C210.461 57.6817 211.79 57.7359 212.204 57.7359V57.3897C211.453 57.2321 211.073 56.885 211.073 56.2475V46.3839H213.715C214.565 46.3839 215.173 46.6731 215.49 47.7837H215.832L215.838 45.2219C214.975 45.2758 214.296 45.3548 210.048 45.3548Z" fill="#1D1D1B"/>
<path d="M176.165 56.2473C176.165 56.8849 176.57 57.2307 177.319 57.3896V57.7357C176.904 57.7357 175.546 57.6815 175.158 57.6815C174.826 57.6815 173.5 57.7357 173.082 57.7357V57.3896C173.776 57.257 174.186 56.914 174.186 56.2473V46.7105C174.186 46.1241 173.866 45.7547 173.084 45.6219V45.2788C173.5 45.2788 174.813 45.3311 175.184 45.3311C175.792 45.3311 177.52 45.229 178.2 45.229C181.176 45.229 182.834 46.4586 182.834 48.5664C182.834 50.2234 181.6 51.3441 179.7 51.8018C179.7 51.8018 180.134 52.0533 180.566 52.5555C181.091 53.1737 182.508 55.2059 183.096 55.9165C183.684 56.6292 184.435 57.4243 185.241 57.4604V57.7383C184.855 57.8225 184.236 57.8961 183.762 57.8961C182.752 57.8961 181.945 57.5393 181.161 56.5919C180.483 55.7674 179.332 54.0565 178.655 53.1918C178.222 52.6414 177.697 52.2112 176.736 52.0533C176.551 52.0217 176.375 51.9954 176.165 51.9706V56.2473ZM176.165 51.1793C176.561 51.2332 177.143 51.2582 177.719 51.2582C180.05 51.2582 180.783 49.9192 180.783 48.7341C180.783 47.0577 179.663 46.0188 177.624 46.0188C177.202 46.0188 176.59 46.0714 176.165 46.1513V51.1793Z" fill="#1D1D1B"/>
<path d="M146.66 46.8472C146.389 46.2469 145.972 45.8071 145.262 45.6511V45.3008C145.704 45.3008 147.234 45.3562 147.57 45.3562C147.879 45.3562 149.216 45.3008 149.67 45.3008V45.641C149.267 45.7184 148.808 45.9412 148.808 46.3534C148.808 46.6479 148.986 47.0493 149.328 47.8046L152.535 55.0935L155.569 47.7921C155.809 47.2028 155.982 46.7463 155.982 46.3976C155.982 46.012 155.626 45.7447 155.122 45.641V45.3008C155.525 45.3008 156.514 45.3562 156.821 45.3562C157.102 45.3562 158.262 45.3008 158.705 45.3008V45.6511C157.948 45.8556 157.487 46.272 157.062 47.2582L152.595 57.7797H151.585L146.66 46.8472Z" fill="#1D1D1B"/>
<path d="M158.111 13.665C157.595 12.5265 156.803 11.6966 155.461 11.3993V10.7367C156.296 10.7367 159.068 10.8363 159.705 10.8363C160.292 10.8363 162.976 10.7367 163.832 10.7367V11.3827C163.073 11.5309 162.201 11.9541 162.201 12.7355C162.201 13.2872 162.544 14.0497 163.181 15.4783L169.263 29.2921L175.018 15.4548C175.467 14.3345 175.802 13.4783 175.802 12.8157C175.802 12.0798 175.121 11.5807 174.167 11.3827V10.7367C174.928 10.7367 176.779 10.8363 177.368 10.8363C177.902 10.8363 180.101 10.7367 180.937 10.7367V11.362C179.503 11.7508 178.625 12.5738 177.826 14.4423L169.366 34.3864H167.451L158.111 13.665Z" fill="#1D1D1B"/>
<path d="M76.2161 33.627C77.3208 33.3751 78.0975 32.8732 78.0975 31.6229V13.3385C78.0975 12.138 77.3747 11.6398 76.2161 11.3385V10.6896C76.7962 10.6896 79.2951 10.788 79.9028 10.788C80.6034 10.788 83.2227 10.6896 83.7987 10.6896V11.3385C82.6953 11.5888 81.8771 12.0894 81.8771 13.3385V20.9764H95.5113V13.3385C95.5113 12.0894 94.7844 11.5888 93.6326 11.3385V10.6896C94.2084 10.6896 96.781 10.788 97.4799 10.788C98.0836 10.788 100.641 10.6896 101.211 10.6896V11.3385C100.106 11.5888 99.288 12.0894 99.288 13.3385V31.6229C99.288 32.8234 100.056 33.3269 101.211 33.627V34.2257C100.641 34.2257 98.0836 34.1762 97.4799 34.1762C96.781 34.1762 94.2084 34.2257 93.6326 34.2257V33.627C94.7292 33.3751 95.5113 32.8732 95.5113 31.6229V22.9818H81.8771V31.6229C81.8771 32.8732 82.6441 33.3269 83.7987 33.627V34.2257C83.2227 34.2257 80.6034 34.1762 79.9028 34.1762C79.2951 34.1762 76.7962 34.2257 76.2161 34.2257V33.627Z" fill="#1D1D1B"/>
<path d="M233.92 33.627C235.335 33.3751 236.115 32.8137 236.115 31.5232V13.3385C236.115 12.0853 235.346 11.5888 233.979 11.3384V10.6896C234.766 10.6896 237.33 10.788 238.041 10.788C239.187 10.788 242.385 10.5377 244.874 10.5377C253.261 10.5377 258.353 15.2169 258.353 22.332C258.353 29.2478 253.055 34.3726 244.407 34.3726C241.914 34.3726 238.957 34.1762 237.8 34.1762C237.096 34.1762 234.705 34.2755 233.92 34.2755V33.627ZM239.892 32.4221C240.746 32.5771 242.324 32.6739 243.569 32.6739C250.614 32.6739 254.282 28.4374 254.282 22.5284C254.282 16.4024 250.412 12.0922 243.825 12.0922C242.479 12.0922 240.797 12.1931 239.892 12.34V32.4221Z" fill="#1D1D1B"/>
<path d="M138.986 31.4568C138.986 32.6686 139.754 33.3268 141.168 33.6269V34.2757C140.38 34.2757 137.815 34.1761 137.077 34.1761C136.454 34.1761 133.937 34.2757 133.151 34.2757V33.6269C134.463 33.3753 135.237 32.7224 135.237 31.4568V13.4023C135.237 12.2914 134.636 11.589 133.153 11.3384V10.6896C133.941 10.6896 136.428 10.7879 137.125 10.7879C138.279 10.7879 141.549 10.5959 142.839 10.5959C148.479 10.5959 151.619 12.9264 151.619 16.9127C151.619 20.0553 149.277 22.17 145.682 23.0428C145.682 23.0428 146.497 23.5174 147.318 24.473C148.313 25.6418 151.06 29.5701 152.171 30.9157C153.281 32.2632 154.705 33.7679 156.228 33.8371V34.3672C155.499 34.5245 154.33 34.6589 153.437 34.6589C151.514 34.6589 149.987 33.9866 148.502 32.1883C147.221 30.6281 144.981 27.3113 143.697 25.6738C142.878 24.6305 141.89 23.8176 140.075 23.5174C139.717 23.4563 139.381 23.4093 138.986 23.3652V31.4568ZM138.986 21.8673C139.732 21.9654 140.836 22.0152 141.93 22.0152C146.341 22.0152 147.726 19.4785 147.726 17.2376C147.726 14.0552 145.605 12.0922 141.741 12.0922C140.945 12.0922 139.785 12.1933 138.986 12.34V21.8673Z" fill="#1D1D1B"/>
<path d="M213.326 31.4568C213.326 32.6686 214.097 33.3268 215.513 33.6269V34.2757C214.726 34.2757 212.163 34.1761 211.425 34.1761C210.791 34.1761 208.283 34.2757 207.493 34.2757V33.6269C208.803 33.3753 209.579 32.7224 209.579 31.4568V13.4023C209.579 12.2914 208.972 11.589 207.498 11.3384V10.6896C208.288 10.6896 210.767 10.7879 211.47 10.7879C212.626 10.7879 215.894 10.5959 217.177 10.5959C222.827 10.5959 225.957 12.9264 225.957 16.9127C225.957 20.0553 223.62 22.17 220.022 23.0428C220.022 23.0428 220.841 23.5174 221.655 24.473C222.66 25.6418 225.407 29.5701 226.513 30.9157C227.628 32.2632 229.052 33.7679 230.567 33.8371V34.3672C229.847 34.5245 228.672 34.6589 227.788 34.6589C225.861 34.6589 224.327 33.9866 222.846 32.1883C221.565 30.6281 219.332 27.3113 218.038 25.6738C217.218 24.6305 216.233 23.8176 214.421 23.5174C214.059 23.4563 213.726 23.4093 213.326 23.3652V31.4568ZM213.326 21.8673C214.082 21.9654 215.179 22.0152 216.274 22.0152C220.686 22.0152 222.068 19.4785 222.068 17.2376C222.068 14.0552 219.945 12.0922 216.089 12.0922C215.285 12.0922 214.131 12.1933 213.326 12.34V21.8673Z" fill="#1D1D1B"/>
<path d="M104.798 33.6227C106.291 33.2743 107.11 32.3088 107.654 31.0168L115.205 12.8655C115.526 12.1146 115.9 10.5707 115.9 10.5707H118.013C118.013 10.5707 118.391 12.1186 118.705 12.8711L126.685 31.0666C127.254 32.3197 127.87 33.2245 129.457 33.6227L129.453 34.2273C128.589 34.2273 125.903 34.1775 125.292 34.1775C124.685 34.1775 122.119 34.2273 121.257 34.2273L121.26 33.6227C122.421 33.3379 122.788 32.7474 122.788 32.1759C122.788 31.6906 122.587 31.1427 122.344 30.5744L120.628 26.6652H111.835L110.264 30.5963C110.088 31.0418 109.879 31.6712 109.879 32.0957C109.879 32.7514 110.223 33.2743 111.541 33.6227L111.538 34.2273C110.757 34.2273 108.695 34.1775 108.213 34.1775L104.797 34.2273L104.798 33.6227ZM119.832 24.8118L116.077 16.0717L112.58 24.8118H119.832Z" fill="#1D1D1B"/>
<path d="M179.605 33.6227C181.096 33.2743 181.918 32.3088 182.46 31.0168L190.013 12.8655C190.335 12.1146 190.713 10.5707 190.713 10.5707H192.825C192.825 10.5707 193.199 12.1186 193.512 12.8711L201.495 31.0666C202.059 32.3197 202.681 33.2245 204.261 33.6227L204.258 34.2273C203.397 34.2273 200.709 34.1775 200.094 34.1775C199.491 34.1775 196.927 34.2273 196.063 34.2273V33.6227C197.232 33.3379 197.593 32.7474 197.593 32.1759C197.593 31.6906 197.395 31.1427 197.156 30.5744L195.434 26.6652H186.641L185.068 30.5963C184.892 31.0418 184.685 31.6712 184.685 32.0957C184.685 32.7514 185.028 33.2743 186.346 33.6227V34.2273C185.562 34.2273 183.504 34.1775 183.018 34.1775L179.602 34.2273L179.605 33.6227ZM194.639 24.8118L190.882 16.0717L187.387 24.8118H194.639Z" fill="#1D1D1B"/>
<path d="M6.50262 3.35068H59.1512V23.22C59.1512 32.3238 55.7592 51.6302 33.0234 65.9988C33.0234 65.9988 8.38818 55.7201 6.50262 23.22L6.50262 3.35068Z" fill="#A81D28"/>
<path d="M6.39471 3.29805H59.0944V23.1812C59.0944 32.2881 55.6983 51.6051 32.9418 65.9834C32.9418 65.9834 8.28309 55.6982 6.39471 23.1812L6.39471 3.29805Z" stroke="#12110C" stroke-width="0.306667"/>
<path d="M46.3517 28.8827C46.3517 28.8827 45.8823 30.3777 43.7948 28.841L36.6273 28.6681C36.6273 28.6681 35.6887 28.9698 35.5611 27.9889C35.5611 27.9889 35.7329 26.0293 35.6458 25.8576C35.6458 25.8576 35.6887 25.3043 34.747 25.3043C34.747 25.3043 33.2989 25.4744 33.256 24.1937C33.256 24.1937 33.0029 22.83 35.0061 22.8754C35.0061 22.8754 35.6458 23.1727 35.6887 22.361C35.6887 22.361 35.6044 16.8186 35.6458 16.3954C35.6458 16.3954 35.8173 15.8863 34.8342 15.7992C34.8342 15.7992 33.4278 16.0965 33.256 15.1616C33.256 15.1616 33.1716 13.755 34.1117 13.6679C34.1117 13.6679 35.2622 13.755 35.4752 13.4549C35.4752 13.4549 35.7329 13.6234 35.6887 12.6055L35.7329 10.8543C35.7329 10.8543 35.8562 10.3868 36.583 10.4326C36.583 10.4326 37.9064 10.5169 38.0795 10.3868C38.0795 10.3868 38.3745 10.0053 38.4617 9.832C38.4617 9.832 39.1456 9.79065 39.2717 9.96202C39.2717 9.96202 40.2961 10.644 44.178 10.3868C44.178 10.3868 44.7763 10.3868 44.9008 10.5585C44.9008 10.5585 45.6289 11.1115 46.0541 10.5168C46.0541 10.5168 46.6938 10.3868 48.6126 10.4326C48.6126 10.4326 50.7058 10.9843 52.1526 9.79065L52.6233 9.87649C52.6233 9.87649 53.22 10.8543 53.6465 10.5585C53.6465 10.5585 54.9272 10.4326 55.1388 10.687C55.1388 10.687 55.5641 11.322 55.3521 12.9899C55.3521 12.9899 55.099 13.7121 56.3351 13.7121C56.3351 13.7121 57.7447 13.4549 57.5713 14.7757C57.5713 14.7757 57.9548 16.2682 55.6111 16.0564C55.6111 16.0564 55.3107 16.4825 55.3521 16.7813C55.3521 16.7813 55.3107 21.6376 55.2677 22.195C55.2677 22.195 55.226 22.9628 56.248 22.9183C56.248 22.9183 57.6146 22.83 57.66 24.0678C57.66 24.0678 57.829 25.6875 55.8645 25.3874C55.8645 25.3874 55.2677 25.4744 55.179 25.8576L55.099 27.9889C55.099 27.9889 55.1388 29.0541 53.9469 28.7969C53.7766 28.7969 47.2931 28.9284 46.7368 28.7583C46.7368 28.7583 46.4348 28.7154 46.3517 28.8827Z" fill="white"/>
<path d="M32.5722 36.006C32.5722 36.006 32.8714 35.8801 32.9557 35.6699C32.9557 35.6699 33.8529 35.5825 33.9786 35.4556L36.7961 35.6699C36.7961 35.6699 39.5679 35.8801 40.7626 35.0239C40.7626 35.0239 41.1919 35.0239 41.4908 35.1539C41.4908 35.1539 42.0847 35.2839 42.255 35.5358L43.8777 35.4929C43.8777 35.4929 44.8163 35.7942 44.7291 36.3917V37.1567C44.7291 37.1567 44.5576 38.6922 44.984 38.7792H46.2242C46.2242 38.7792 47.249 39.247 47.1201 39.8429C47.1201 39.8429 47.1631 40.6922 46.2688 40.8651C46.2688 40.8651 45.3688 41.1195 45.0737 41.0794C45.0737 41.0794 44.7733 41.4613 44.7291 41.93L44.6046 47.514C44.6046 47.514 44.5174 48.1102 45.4146 48.0256C45.4146 48.0256 46.7338 47.8972 47.1201 48.6246C47.1201 48.6246 47.462 49.8583 46.7796 50.0714L46.2688 50.3245L45.1568 50.5018C45.1568 50.5018 44.6905 50.5404 44.646 51.3496V52.839C44.646 52.839 44.6905 53.8656 43.8777 53.8656L42.683 53.9511C42.683 53.9511 42.3851 54.203 41.7887 54.0329C41.7887 54.0329 34.5352 54.1642 34.279 54.0774L33.4252 54.25C33.4252 54.25 32.4876 55.1022 31.7193 54.4602L31.1225 53.9912C31.1225 53.9912 30.6948 54.0774 30.5274 54.0329C30.3558 53.9912 22.5057 54.12 22.5057 54.12C22.5057 54.12 20.8415 54.2929 20.7154 53.7356C20.7154 53.7356 20.5025 51.5639 20.5869 51.3039C20.5869 51.3039 20.5869 50.6676 20.2034 50.6262C20.2034 50.6262 18.5392 50.5404 18.4962 50.3674C18.4962 50.3674 17.5991 49.7315 17.8553 49.0933C17.8553 49.0933 18.1557 48.2374 19.05 48.1528C19.05 48.1528 20.415 48.3687 20.415 47.9843C20.415 47.9843 20.5025 47.7283 20.5025 47.3038C20.5025 47.3038 20.5869 42.2289 20.5439 41.8886C20.5439 41.8886 20.6712 41.2495 20.1162 41.2495C20.1162 41.2495 19.5194 41.4184 19.1372 41.164C19.1372 41.164 18.1127 41.2069 17.8995 40.3961C17.8995 40.3961 17.728 39.8858 17.9826 39.4556C17.9826 39.4556 18.4536 38.5192 19.8186 38.819C19.8186 38.819 20.5869 39.0336 20.6712 38.4816L20.6311 36.4318C20.6311 36.4318 20.458 35.8801 21.5254 35.5825C21.5254 35.5825 22.8904 35.9644 23.3157 35.2839C23.3157 35.2839 23.7863 34.3431 24.1658 34.9825C24.1658 34.9825 24.9798 35.7516 27.1978 35.6699C27.1978 35.6699 31.0382 35.3685 31.1225 35.5358C31.1225 35.5358 32.0614 35.6699 32.316 35.9644L32.5722 36.006Z" fill="white"/>
<path d="M20.9745 28.8827C20.9745 28.8827 20.5038 30.3777 18.4135 28.8398L11.2473 28.6681C11.2473 28.6681 10.3087 28.9698 10.1798 27.9879C10.1798 27.9879 10.3517 26.0293 10.2629 25.8576C10.2629 25.8576 10.3087 25.3015 9.36861 25.3015C9.36861 25.3015 7.9205 25.4757 7.87879 24.1965C7.87879 24.1965 7.62134 22.8284 9.62606 22.8754C9.62606 22.8754 10.2629 23.1727 10.3087 22.3626C10.3087 22.3626 10.2228 16.8227 10.2629 16.3941C10.2629 16.3941 10.4373 15.8878 9.45579 15.8004C9.45579 15.8004 8.04625 16.0965 7.87879 15.1588C7.87879 15.1588 7.79162 13.755 8.72891 13.6679C8.72891 13.6679 9.881 13.755 10.0955 13.4602C10.0955 13.4602 10.3517 13.625 10.3087 12.6011L10.3517 10.8558C10.3517 10.8558 10.4803 10.3868 11.2015 10.4298C11.2015 10.4298 12.5279 10.514 12.6995 10.3868C12.6995 10.3868 12.9974 10.0052 13.0789 9.832C13.0789 9.832 13.7656 9.7919 13.8929 9.95794C13.8929 9.95794 14.9146 10.644 18.8008 10.3868C18.8008 10.3868 19.3947 10.3868 19.5236 10.5585C19.5236 10.5585 20.2476 11.1115 20.6741 10.514C20.6741 10.514 21.3138 10.3868 23.2351 10.4298C23.2351 10.4298 25.3217 10.983 26.7742 9.7919L27.2421 9.87931C27.2421 9.87931 27.8388 10.8558 28.2693 10.5585C28.2693 10.5585 29.5472 10.4298 29.7617 10.687C29.7617 10.687 30.1894 11.3261 29.9721 12.9899C29.9721 12.9899 29.7187 13.7133 30.9552 13.7133C30.9552 13.7133 32.3616 13.4602 32.1929 14.7757C32.1929 14.7757 32.5776 16.2682 30.2311 16.0564C30.2311 16.0564 29.9307 16.4837 29.9721 16.7813C29.9721 16.7813 29.9307 21.6376 29.889 22.1949C29.889 22.1949 29.8476 22.9572 30.8708 22.9183C30.8708 22.9183 32.2358 22.8284 32.2772 24.0693C32.2772 24.0693 32.4475 25.6875 30.487 25.3873C30.487 25.3873 29.889 25.4757 29.8018 25.8576L29.7187 27.9879C29.7187 27.9879 29.7617 29.0541 28.5641 28.7997C28.3938 28.7997 21.9134 28.9256 21.3565 28.7583C21.3565 28.7583 21.0589 28.7154 20.9745 28.8827Z" fill="white"/>
<path d="M46.3517 28.8827C46.3517 28.8827 45.8823 30.3777 43.7948 28.841L36.6273 28.6681C36.6273 28.6681 35.6887 28.9698 35.5611 27.9889C35.5611 27.9889 35.7329 26.0293 35.6458 25.8576C35.6458 25.8576 35.6887 25.3043 34.747 25.3043C34.747 25.3043 33.2989 25.4744 33.256 24.1937C33.256 24.1937 33.0029 22.83 35.0061 22.8754C35.0061 22.8754 35.6458 23.1727 35.6887 22.361C35.6887 22.361 35.6044 16.8186 35.6458 16.3954C35.6458 16.3954 35.8173 15.8863 34.8342 15.7992C34.8342 15.7992 33.4278 16.0965 33.256 15.1616C33.256 15.1616 33.1716 13.755 34.1117 13.6679C34.1117 13.6679 35.2622 13.755 35.4752 13.4549C35.4752 13.4549 35.7329 13.6234 35.6887 12.6055L35.7329 10.8543C35.7329 10.8543 35.8562 10.3868 36.583 10.4326C36.583 10.4326 37.9064 10.5169 38.0795 10.3868C38.0795 10.3868 38.3745 10.0053 38.4617 9.832C38.4617 9.832 39.1456 9.79065 39.2717 9.96202C39.2717 9.96202 40.2961 10.644 44.178 10.3868C44.178 10.3868 44.7763 10.3868 44.9008 10.5585C44.9008 10.5585 45.6289 11.1115 46.0541 10.5168C46.0541 10.5168 46.6938 10.3868 48.6126 10.4326C48.6126 10.4326 50.7058 10.9843 52.1526 9.79065L52.6233 9.87649C52.6233 9.87649 53.22 10.8543 53.6465 10.5585C53.6465 10.5585 54.9272 10.4326 55.1388 10.687C55.1388 10.687 55.5641 11.322 55.3521 12.9899C55.3521 12.9899 55.099 13.7121 56.3351 13.7121C56.3351 13.7121 57.7447 13.4549 57.5713 14.7757C57.5713 14.7757 57.9548 16.2682 55.6111 16.0564C55.6111 16.0564 55.3107 16.4825 55.3521 16.7813C55.3521 16.7813 55.3107 21.6376 55.2677 22.195C55.2677 22.195 55.226 22.9628 56.248 22.9183C56.248 22.9183 57.6146 22.83 57.66 24.0678C57.66 24.0678 57.829 25.6875 55.8645 25.3874C55.8645 25.3874 55.2677 25.4744 55.179 25.8576L55.099 27.9889C55.099 27.9889 55.1388 29.0541 53.9469 28.7969C53.7766 28.7969 47.2931 28.9284 46.7368 28.7583C46.7368 28.7583 46.4348 28.7154 46.3517 28.8827Z" fill="#12110C"/>
<path d="M46.3517 28.8839C46.3517 28.8839 45.8823 30.3793 43.7948 28.8426L36.6257 28.6696C36.6257 28.6696 35.6872 28.971 35.5598 27.9892C35.5598 27.9892 35.7329 26.0293 35.6442 25.8576C35.6442 25.8576 35.6872 25.3043 34.747 25.3043C34.747 25.3043 33.2977 25.476 33.2547 24.195C33.2547 24.195 33.0013 22.8312 35.0045 22.8754C35.0045 22.8754 35.6442 23.173 35.6872 22.3625C35.6872 22.3625 35.6028 16.8199 35.6442 16.3954C35.6442 16.3954 35.8173 15.885 34.8342 15.7992C34.8342 15.7992 33.4262 16.0968 33.2547 15.1616C33.2547 15.1616 33.1716 13.7534 34.1102 13.6679C34.1102 13.6679 35.2607 13.7534 35.4742 13.4548C35.4742 13.4548 35.7329 13.6234 35.6872 12.604L35.7329 10.853C35.7329 10.853 35.8546 10.3856 36.5843 10.4313C36.5843 10.4313 37.9064 10.5156 38.0782 10.3856C38.0782 10.3856 38.3733 10.0052 38.4617 9.83199C38.4617 9.83199 39.1444 9.78938 39.2717 9.96106C39.2717 9.96106 40.2949 10.6428 44.178 10.3856C44.178 10.3856 44.7763 10.3856 44.9008 10.5569C44.9008 10.5569 45.6289 11.1102 46.0541 10.5156C46.0541 10.5156 46.6938 10.3856 48.6126 10.4313C48.6126 10.4313 50.7058 10.983 52.1539 9.78938L52.6249 9.87365C52.6249 9.87365 53.2213 10.853 53.6465 10.5569C53.6465 10.5569 54.9272 10.4313 55.1388 10.6841C55.1388 10.6841 55.5653 11.322 55.3536 12.9871C55.3536 12.9871 55.099 13.7121 56.3364 13.7121C56.3364 13.7121 57.7447 13.4548 57.5713 14.7744C57.5713 14.7744 57.9548 16.2682 55.6111 16.0551C55.6111 16.0551 55.3119 16.4812 55.3536 16.7813C55.3536 16.7813 55.3119 21.6376 55.269 22.1937C55.269 22.1937 55.226 22.9612 56.2492 22.9199C56.2492 22.9199 57.6171 22.8312 57.6613 24.0678C57.6613 24.0678 57.829 25.6875 55.8657 25.3873C55.8657 25.3873 55.269 25.476 55.1806 25.8576L55.099 27.9892C55.099 27.9892 55.1388 29.0556 53.9485 28.7984C53.7782 28.7984 47.2931 28.9284 46.7368 28.7583C46.7368 28.7583 46.4348 28.7166 46.3517 28.8839Z" stroke="#12110C" stroke-width="0.0133333"/>
<path d="M38.29 11.3233C38.29 11.3233 38.3744 12.1767 38.3744 12.3925C38.3744 12.604 38.2486 24.7069 38.2486 24.7069C38.2486 24.7069 38.3744 25.6446 37.5672 26.1148C37.5672 26.1148 37.3512 26.1979 37.311 25.6017L37.3944 12.8199C37.3944 12.8199 37.4801 11.2387 38.29 11.3233Z" fill="white"/>
<path d="M38.2914 11.3219C38.2914 11.3219 38.3745 12.1753 38.3745 12.3911C38.3745 12.6039 38.25 24.7084 38.25 24.7084C38.25 24.7084 38.3745 25.646 37.5674 26.1147C37.5674 26.1147 37.3513 26.1993 37.3083 25.6031L37.3943 12.8185C37.3943 12.8185 37.4786 11.2373 38.2914 11.3219Z" stroke="#12110C" stroke-width="0.016"/>
<path d="M36.8833 26.2409C36.8833 26.2409 36.968 14.2225 36.9279 14.0095C36.8833 13.7993 36.968 14.1837 36.968 14.1837C36.968 14.1837 36.8404 12.0922 37.3957 11.2375C37.3957 11.2375 37.2226 10.517 36.2424 11.4104L36.1994 13.1558C36.1994 13.1558 36.1994 14.1379 35.3051 14.095C35.3051 14.095 34.2806 14.0508 33.8112 14.5198C33.8112 14.5198 33.5553 15.4587 34.5352 15.2902C34.5352 15.2902 36.0721 15.2902 36.158 15.9249L36.0721 22.3624C36.0721 22.3624 36.4139 23.4329 35.2207 23.4329C35.2207 23.4329 33.7657 23.3417 33.8112 24.2368C33.8112 24.2368 34.1116 25.0027 35.348 24.7496C35.348 24.7496 36.2424 24.9169 36.1994 25.7731V27.3916C36.1994 27.3916 36.1135 28.0347 36.968 28.0748H43.6228C43.6228 28.0748 43.9621 28.1162 43.9621 27.6901C43.9621 27.6901 43.9207 27.3502 43.4096 27.3502L37.8648 27.2644C37.8648 27.2644 36.968 27.5645 36.8833 26.2409Z" fill="white"/>
<path d="M38.164 26.2214C38.164 26.2214 37.9925 26.8176 38.6318 26.6929H43.0264L44.2183 26.9517C44.2183 26.9517 45.4547 26.6503 44.2183 25.9695C44.2183 25.9695 40.2948 26.0084 39.9542 25.9254C39.9542 25.9254 39.143 25.7136 38.9683 25.671C38.9683 25.671 38.5462 25.5009 38.164 26.2214Z" fill="white"/>
<path d="M38.1626 26.2214C38.1626 26.2214 37.9911 26.8189 38.6305 26.6945H43.0263L44.2185 26.9529C44.2185 26.9529 45.4559 26.6503 44.2185 25.9683C44.2185 25.9683 40.2947 26.0068 39.9526 25.9254C39.9526 25.9254 39.1416 25.7123 38.9685 25.6694C38.9685 25.6694 38.5449 25.4993 38.1626 26.2214Z" stroke="#12110C" stroke-width="0.016"/>
<path d="M45.4559 26.819C45.4559 26.819 44.6459 26.819 44.6877 27.8867C44.6877 27.8867 44.7733 28.6931 45.6262 28.6931C45.6262 28.6931 46.3916 28.5674 46.3101 27.7153C46.3101 27.7153 45.8394 26.6501 45.4559 26.819Z" fill="white"/>
<path d="M46.054 26.3943C46.054 26.3943 46.4375 25.9698 46.695 25.9698C46.695 25.9698 50.9606 26.3514 51.6806 25.841C51.6806 25.841 52.3244 25.7138 52.4959 25.841C52.4959 25.841 53.1344 26.3514 53.1344 26.6502C53.1344 26.6502 53.0926 27.0359 52.3244 26.8175C52.3244 26.8175 47.5037 26.8645 47.2475 26.8645C47.2475 26.8645 45.9226 27.1606 46.054 26.3943Z" fill="white"/>
<path d="M46.0526 26.3943C46.0526 26.3943 46.4361 25.9682 46.6936 25.9682C46.6936 25.9682 50.9605 26.3501 51.682 25.8395C51.682 25.8395 52.3255 25.7123 52.4973 25.8395C52.4973 25.8395 53.1355 26.3501 53.1355 26.6515C53.1355 26.6515 53.0941 27.0375 52.3255 26.8188C52.3255 26.8188 47.5023 26.8658 47.2461 26.8658C47.2461 26.8658 45.9212 27.1618 46.0526 26.3943Z" stroke="#12110C" stroke-width="0.016"/>
<path d="M46.6078 27.7761C46.6078 27.7761 46.6078 27.4315 47.2058 27.4315L53.1758 27.3901C53.1758 27.3901 53.7324 27.689 53.7324 26.668C53.7324 26.668 53.951 22.0222 53.9704 16.9072C53.9773 15.3843 54.0466 13.7869 53.9927 12.3066C53.9927 12.3066 53.8597 11.6662 53.6882 11.5362C53.6882 11.5362 53.6882 10.8557 54.4147 11.1117C54.4147 11.1117 55.0544 11.1546 54.8842 12.138L54.9284 13.6233C54.9284 13.6233 54.7998 14.2665 55.9488 14.0939C55.9488 14.0939 57.0993 14.2665 57.1451 14.6898C57.1451 14.6898 57.4856 15.546 56.1231 15.4589H55.1375C55.1375 15.4589 54.7126 15.7136 54.84 16.2267L54.7126 22.4079C54.7126 22.4079 54.6267 23.4715 55.6512 23.4314C55.6512 23.4314 56.7158 23.3872 56.9303 23.729C56.9303 23.729 57.66 24.7939 56.0789 24.7084C56.0789 24.7084 55.0974 24.6639 54.8842 24.8368C54.8842 24.8368 54.7126 25.0483 54.585 27.054C54.585 27.054 54.6722 28.2476 53.775 28.1163C53.775 28.1163 47.8443 28.2006 47.2905 28.075C47.2905 28.075 46.6938 28.2476 46.6078 27.7761Z" fill="white"/>
<path d="M38.931 10.936L38.8021 24.621C38.8021 24.621 38.7607 25.256 39.8269 25.3845C39.8269 25.3845 41.063 25.5117 41.3593 25.3845C41.3593 25.3845 42.175 25.3403 44.2612 25.4274C44.2612 25.4274 44.7761 25.9434 44.8191 25.2989C44.8191 25.2989 45.1568 14.2224 44.9909 11.9153C44.9909 11.9153 44.9439 10.936 44.2211 10.893C44.2211 10.893 40.9787 11.1546 40.6798 10.893L39.3992 10.5556C39.3992 10.5556 38.8868 10.597 38.931 10.936Z" fill="white"/>
<path d="M45.6693 11.6207C45.6693 11.6207 45.542 18.0565 45.5846 18.2696L45.5002 23.6807L45.3271 25.5576C45.3271 25.5576 45.5846 25.9404 45.7981 25.686C45.7981 25.686 47.1632 25.3402 48.0158 25.4746C48.0158 25.4746 50.7489 25.7277 51.3012 25.2988C51.3012 25.2988 51.7289 25.5118 51.8537 24.8298C51.8537 24.8298 52.0224 12.9001 51.9437 12.6871C51.9437 12.6871 52.1083 10.9775 52.0224 10.8115C52.0224 10.8115 51.9851 10.4283 51.2582 10.7673C51.2582 10.7673 51.3413 11.1103 47.2917 10.9775C47.2917 10.9775 45.7564 10.9358 45.6693 11.6207Z" fill="white"/>
<path d="M52.4544 11.452L52.413 24.917C52.413 24.917 52.7536 26.1147 53.3074 25.9891C53.3074 25.9891 53.3905 25.7303 53.4318 25.3043L53.6049 12.4742C53.6049 12.4742 53.1757 10.4325 52.4544 11.452Z" fill="white"/>
<path d="M52.453 11.4506L52.4116 24.9185C52.4116 24.9185 52.7534 26.1165 53.3072 25.9906C53.3072 25.9906 53.3919 25.7318 53.4333 25.3057L53.6048 12.4728C53.6048 12.4728 53.1758 10.4312 52.453 11.4506Z" stroke="#12110C" stroke-width="0.016"/>
<path d="M47.2156 15.4838C47.0882 15.1436 47.9409 15.1007 47.9409 15.1007L48.3689 15.185C48.6681 15.1436 48.9669 15.2721 48.9669 15.2721C49.2648 15.7398 48.7524 15.9942 48.7524 15.9942L48.5821 16.5503C48.5379 17.0205 48.5821 21.0691 48.5821 21.0691C48.6681 21.2794 49.0086 21.6613 49.0086 21.6613C49.0086 22.0469 48.5379 21.9626 48.5379 21.9626L47.3027 22.0056C46.918 21.9626 47.0453 21.535 47.0453 21.535C47.4717 21.3223 47.6006 20.5532 47.6006 20.5532V16.336L47.2156 15.4838Z" fill="#12110C"/>
<path d="M41.4577 19.448L41.3733 20.7688L41.754 21.4066C42.013 21.7469 41.585 22.0056 41.585 22.0056L40.22 21.8781C39.9666 21.7469 40.22 21.3221 40.22 21.3221C40.5621 21.1122 40.6047 20.5545 40.6047 20.5545L40.5621 18.083L40.6047 16.2932C40.6047 16.0786 40.2642 15.6982 40.2642 15.6982C39.9666 15.6553 40.051 15.2722 40.051 15.2722C40.1356 15.0579 40.8581 15.1851 40.8581 15.1851H42.6524C44.3595 15.7399 44.1034 16.9761 44.1034 16.9761C44.2322 18.2102 42.9099 18.7246 42.9099 18.7246L42.8214 19.4066L44.0604 21.3637C44.2736 21.5351 44.2322 21.708 44.2322 21.708C44.0604 22.177 43.3765 21.708 43.3765 21.708L41.8428 19.3195C41.7139 19.1478 41.4577 19.448 41.4577 19.448ZM41.5006 16.0786C41.542 17.0191 41.542 18.2973 41.542 18.2973C42.3548 18.9376 42.8214 18.0401 42.8214 18.0401C43.886 17.019 42.8214 16.0786 42.6524 15.8254C42.4793 15.5682 41.6267 15.7813 41.6267 15.7813L41.5006 16.0786Z" fill="#12110C"/>
<path d="M32.5722 36.006C32.5722 36.006 32.8714 35.8801 32.9557 35.6699C32.9557 35.6699 33.8529 35.5825 33.9786 35.4556L36.7961 35.6699C36.7961 35.6699 39.5679 35.8801 40.7626 35.0239C40.7626 35.0239 41.1919 35.0239 41.4908 35.1539C41.4908 35.1539 42.0847 35.2839 42.255 35.5358L43.8777 35.4929C43.8777 35.4929 44.8163 35.7942 44.7291 36.3917V37.1567C44.7291 37.1567 44.5576 38.6922 44.984 38.7792H46.2242C46.2242 38.7792 47.249 39.247 47.1201 39.8429C47.1201 39.8429 47.1631 40.6922 46.2688 40.8651C46.2688 40.8651 45.3688 41.1195 45.0737 41.0794C45.0737 41.0794 44.7733 41.4613 44.7291 41.93L44.6046 47.514C44.6046 47.514 44.5174 48.1102 45.4146 48.0256C45.4146 48.0256 46.7338 47.8972 47.1201 48.6246C47.1201 48.6246 47.462 49.8583 46.7796 50.0714L46.2688 50.3245L45.1568 50.5018C45.1568 50.5018 44.6905 50.5404 44.646 51.3496V52.839C44.646 52.839 44.6905 53.8656 43.8777 53.8656L42.683 53.9511C42.683 53.9511 42.3851 54.203 41.7887 54.0329C41.7887 54.0329 34.5352 54.1642 34.279 54.0774L33.4252 54.25C33.4252 54.25 32.4876 55.1022 31.7193 54.4602L31.1225 53.9912C31.1225 53.9912 30.6948 54.0774 30.5274 54.0329C30.3558 53.9912 22.5057 54.12 22.5057 54.12C22.5057 54.12 20.8415 54.2929 20.7154 53.7356C20.7154 53.7356 20.5025 51.5639 20.5869 51.3039C20.5869 51.3039 20.5869 50.6676 20.2034 50.6262C20.2034 50.6262 18.5392 50.5404 18.4962 50.3674C18.4962 50.3674 17.5991 49.7315 17.8553 49.0933C17.8553 49.0933 18.1557 48.2374 19.05 48.1528C19.05 48.1528 20.415 48.3687 20.415 47.9843C20.415 47.9843 20.5025 47.7283 20.5025 47.3038C20.5025 47.3038 20.5869 42.2289 20.5439 41.8886C20.5439 41.8886 20.6712 41.2495 20.1162 41.2495C20.1162 41.2495 19.5194 41.4184 19.1372 41.164C19.1372 41.164 18.1127 41.2069 17.8995 40.3961C17.8995 40.3961 17.728 39.8858 17.9826 39.4556C17.9826 39.4556 18.4536 38.5192 19.8186 38.819C19.8186 38.819 20.5869 39.0336 20.6712 38.4816L20.6311 36.4318C20.6311 36.4318 20.458 35.8801 21.5254 35.5825C21.5254 35.5825 22.8904 35.9644 23.3157 35.2839C23.3157 35.2839 23.7863 34.3431 24.1658 34.9825C24.1658 34.9825 24.9798 35.7516 27.1978 35.6699C27.1978 35.6699 31.0382 35.3685 31.1225 35.5358C31.1225 35.5358 32.0614 35.6699 32.316 35.9644L32.5722 36.006Z" fill="#12110C"/>
<path d="M32.5722 35.9534C32.5722 35.9534 32.8682 35.829 32.9557 35.616C32.9557 35.616 33.8513 35.5289 33.9786 35.4014L36.7949 35.616C36.7949 35.616 39.5679 35.829 40.7626 34.9728C40.7626 34.9728 41.1919 34.9728 41.4907 35.1028C41.4907 35.1028 42.0862 35.2313 42.2537 35.4831L43.879 35.4415C43.879 35.4415 44.8163 35.7432 44.7291 36.339V37.1057C44.7291 37.1057 44.5588 38.6408 44.9853 38.7254H46.2242C46.2242 38.7254 47.2475 39.1956 47.1214 39.7918C47.1214 39.7918 47.1644 40.6411 46.2688 40.814C46.2688 40.814 45.3704 41.0684 45.0753 41.0268C45.0753 41.0268 44.7749 41.4099 44.7291 41.8789L44.603 47.4642C44.603 47.4642 44.5174 48.0576 45.413 47.9745C45.413 47.9745 46.7338 47.8489 47.1214 48.572C47.1214 48.572 47.4635 49.8073 46.7808 50.0216L46.2688 50.2763L45.1568 50.4492C45.1568 50.4492 44.689 50.4906 44.6476 51.297V52.7923C44.6476 52.7923 44.689 53.8142 43.879 53.8142L42.6842 53.9001C42.6842 53.9001 42.3851 54.1548 41.7887 53.9847C41.7887 53.9847 34.5352 54.1131 34.279 54.0248L33.4236 54.1974C33.4236 54.1974 32.4875 55.0508 31.7193 54.4076L31.1213 53.9386C31.1213 53.9386 30.6948 54.0248 30.5261 53.9847C30.3543 53.9386 22.5057 54.0702 22.5057 54.0702C22.5057 54.0702 20.8402 54.2419 20.7129 53.6858C20.7129 53.6858 20.5009 51.5112 20.5853 51.254C20.5853 51.254 20.5853 50.6178 20.2005 50.5748C20.2005 50.5748 18.5379 50.4906 18.4937 50.3189C18.4937 50.3189 17.5978 49.6788 17.8537 49.041C17.8537 49.041 18.1541 48.1863 19.05 48.1002C19.05 48.1002 20.4138 48.3192 20.4138 47.9301C20.4138 47.9301 20.5009 47.6757 20.5009 47.2524C20.5009 47.2524 20.5853 42.1778 20.5439 41.8372C20.5439 41.8372 20.6712 41.1956 20.1146 41.1956C20.1146 41.1956 19.5182 41.3657 19.1344 41.1126C19.1344 41.1126 18.1115 41.1543 17.8982 40.3451C17.8982 40.3451 17.7251 39.8347 17.9826 39.4058C17.9826 39.4058 18.4508 38.4678 19.817 38.7667C19.817 38.7667 20.5853 38.9826 20.6712 38.4293L20.6283 36.3807C20.6283 36.3807 20.4567 35.829 21.5242 35.5289C21.5242 35.5289 22.8892 35.9133 23.3156 35.2313C23.3156 35.2313 23.7835 34.2923 24.1658 34.9286C24.1658 34.9286 24.9798 35.6977 27.1962 35.616C27.1962 35.616 31.0382 35.3143 31.1213 35.4831C31.1213 35.4831 32.0614 35.616 32.316 35.9133L32.5722 35.9534Z" stroke="#12110C" stroke-width="0.0133333"/>
<path d="M33.6811 52.7562C33.6811 52.7562 34.1947 52.4974 34.5369 52.5861C34.8787 52.6706 39.8684 52.5444 39.8684 52.5444C39.8684 52.5444 42.0433 52.7133 42.3867 52.4116L42.8947 52.243C42.8947 52.243 43.1092 51.9886 43.1092 51.6496C43.1092 51.3053 43.1522 50.1543 43.1522 50.1543L43.2823 49.7314C43.2823 49.7314 43.2381 49.305 43.2823 37.923C43.2823 37.923 43.4497 37.0323 42.8947 36.4749C42.8947 36.4749 42.8947 36.1372 43.065 36.1776C43.2381 36.2234 43.1522 36.2234 43.1522 36.2234C43.1522 36.2234 43.9192 36.0059 44.0452 36.3045C44.0452 36.3045 44.3899 37.3239 44.0895 37.923C44.0895 37.923 44.0035 39.1608 44.6489 39.1608C44.6489 39.1608 44.9007 39.4183 45.4131 39.2883C45.4131 39.2883 46.5219 39.4183 46.5219 39.7557C46.5219 39.7557 46.5219 40.5261 45.7536 40.3976L44.7279 40.4803C44.7279 40.4803 44.0452 40.6119 44.1324 41.4186C44.2196 42.2288 44.0895 48.0255 44.0895 48.0255C44.0895 48.0255 44.0895 48.7104 45.1584 48.6675C45.1584 48.6675 46.4792 48.6233 46.4792 49.0049C46.4792 49.0049 46.8195 49.857 45.8825 49.9015C45.8825 49.9015 44.0895 49.857 44.2196 50.3674C44.2196 50.3674 44.0895 51.5638 44.0035 51.774C44.0035 51.774 44.1782 52.7562 43.9609 52.9279C43.9609 52.9279 43.8348 53.4796 42.6843 53.3953C42.6843 53.3953 35.3481 53.3536 34.1947 53.4382C34.1947 53.4382 33.5108 53.3536 33.6811 52.7562Z" fill="white"/>
<path d="M32.3617 51.947C32.3617 51.947 33.0857 52.0729 33.0857 52.7562C33.0857 53.4366 33.1287 53.8211 32.6997 53.9056C32.2745 53.9912 31.8066 53.8655 31.6806 53.312C31.5492 52.7562 31.7621 52.0729 32.3617 51.947Z" fill="white"/>
<path d="M33.2132 51.6067C33.2132 51.6067 33.9802 51.092 34.279 51.181C34.279 51.181 38.1599 51.4338 39.3575 51.2248C40.5506 51.0106 39.8253 51.181 39.8253 51.181C39.8253 51.181 40.8501 51.181 41.1461 50.7947C41.1461 50.7947 41.4465 50.7129 41.6168 51.0106L42.2537 51.6951C42.2537 51.6951 42.302 52.1171 41.5738 52.0742C41.5738 52.0742 34.6183 52.0742 34.4079 52.1171C34.4079 52.1171 33.0859 52.3273 33.2132 51.6067Z" fill="white"/>
<path d="M33.2118 51.6067C33.2118 51.6067 33.9788 51.092 34.2776 51.1794C34.2776 51.1794 38.1613 51.4338 39.3573 51.2248C40.5524 51.0093 39.8252 51.1794 39.8252 51.1794C39.8252 51.1794 40.8512 51.1794 41.1475 50.7919C41.1475 50.7919 41.4467 50.712 41.6182 51.0093L42.2551 51.6951C42.2551 51.6951 42.3021 52.1186 41.5753 52.0741C41.5753 52.0741 34.6197 52.0741 34.4065 52.1186C34.4065 52.1186 33.0844 52.3288 33.2118 51.6067Z" stroke="#12110C" stroke-width="0.016"/>
<path d="M23.1039 36.4762C23.1039 36.4762 23.403 36.4762 23.3598 36.9882L23.2729 49.8583C23.2729 49.8583 23.403 50.713 22.6774 51.265C22.6774 51.265 22.2911 51.7324 22.2911 51.0106L22.4654 37.8829C22.4654 37.8829 22.5059 36.902 23.1039 36.4762Z" fill="white"/>
<path d="M23.1039 36.475C23.1039 36.475 23.403 36.475 23.3626 36.9866L23.2729 49.8599C23.2729 49.8599 23.403 50.7145 22.6762 51.2666C22.6762 51.2666 22.2883 51.734 22.2883 51.0119L22.4629 37.8829C22.4629 37.8829 22.5043 36.9008 23.1039 36.475Z" stroke="#12110C" stroke-width="0.016"/>
<path d="M22.4213 36.5619C22.4213 36.5619 21.9089 37.5012 21.9519 37.7158L21.9089 40.5676C21.9089 40.5676 21.8659 42.4003 21.9089 42.6146C21.9519 42.8264 21.8659 48.1974 21.8659 48.1974C21.8659 48.1974 21.8233 49.2178 21.8659 49.5608V51.8613C21.8659 51.8613 21.7803 52.8861 22.5473 52.6261C22.5473 52.6261 30.0566 52.4575 30.5273 52.5872C30.5273 52.5872 31.2072 52.7135 30.9551 53.0549C30.9551 53.0549 30.9551 53.3554 30.4815 53.268C30.4815 53.268 26.9415 53.6066 23.7433 53.481C23.7433 53.481 21.6101 53.6066 21.4799 53.3554C21.4799 53.3554 21.1406 53.3122 21.1406 52.0744C21.1406 52.0744 21.1406 50.9265 21.0575 50.7131C21.0575 50.7131 21.1406 50.1088 20.0748 49.9857C20.0748 49.9857 18.5821 50.2429 18.5392 49.3481C18.5392 49.3481 18.7511 48.709 20.2033 48.792C20.2033 48.792 21.2695 48.9634 21.0575 48.1088L21.1836 41.8054C21.1836 41.8054 21.315 40.6923 20.5868 40.6478C20.5868 40.6478 19.907 40.6134 19.6897 40.6923C19.6897 40.6923 18.4536 40.6923 18.5392 39.973C18.5392 39.973 18.9656 39.2039 20.2033 39.3752C20.2033 39.3752 21.1406 39.5444 21.1836 38.4817C21.1836 38.4817 21.1406 36.3063 21.6514 36.2233C21.6514 36.2233 22.7204 36.2618 22.4213 36.5619Z" fill="white"/>
<path d="M23.6992 50.6675C23.6992 50.6675 24.2972 51.3038 25.2803 51.2665L31.0768 51.3495C31.0768 51.3495 31.7209 51.395 31.6804 51.7324C31.6804 51.7324 31.5892 52.243 30.825 52.0729L23.8278 51.9886L23.0582 52.0353C23.0582 52.0353 22.5459 51.947 23.3599 50.9676L23.6992 50.6675Z" fill="white"/>
<path d="M23.6976 50.6663C23.6976 50.6663 24.296 51.3038 25.2803 51.265L31.0784 51.3495C31.0784 51.3495 31.7206 51.3937 31.682 51.7324C31.682 51.7324 31.592 52.2443 30.8278 52.0757L23.8265 51.9912L23.0567 52.0353C23.0567 52.0353 22.5459 51.9486 23.3583 50.9664L23.6976 50.6663Z" stroke="#12110C" stroke-width="0.016"/>
<path d="M41.6169 50.1101C41.6169 50.1101 42.129 51.0922 42.3852 51.2263C42.3852 51.2263 42.8546 51.7755 42.7273 50.7962L42.8116 38.5206C42.8116 38.5206 42.6827 38.0933 42.8116 37.4141L42.3008 36.4761C42.3008 36.4761 41.7442 36.0504 41.7442 36.7308L41.6598 49.8168L41.6169 50.1101Z" fill="white"/>
<path d="M41.6155 50.1116C41.6155 50.1116 42.1291 51.0922 42.3866 51.2278C42.3866 51.2278 42.856 51.7783 42.7287 50.7964L42.813 38.5178C42.813 38.5178 42.6842 38.0933 42.813 37.414L42.301 36.4751C42.301 36.4751 41.7428 36.0503 41.7428 36.7308L41.6584 49.818L41.6155 50.1116Z" stroke="#12110C" stroke-width="0.016"/>
<path d="M32.1472 44.2744C32.1472 44.2744 32.1901 45.2939 32.06 46.272C31.9907 46.8127 32.2328 49.3024 32.017 50.579C32.017 50.579 31.9781 51.0064 31.0782 50.6248C31.0782 50.6248 25.6194 50.7504 25.4491 50.579C25.4491 50.579 23.9568 50.6248 23.8279 49.8557C23.8279 49.8557 24.0411 44.0172 23.9138 43.8001C23.9138 43.8001 23.8279 40.6049 23.9138 40.3076C23.9138 40.3076 24.0411 37.3671 23.9568 37.0265C23.9568 37.0265 23.9997 36.3445 23.8708 36.0018C23.8708 36.0018 23.8708 35.5757 24.5977 35.8304C24.5977 35.8304 24.8498 36.3007 26.2591 36.0917C26.2591 36.0917 27.2848 36.2606 28.2666 36.1318C28.2666 36.1318 30.44 35.9617 30.9966 36.1318C30.9966 36.1318 31.8508 35.9617 32.1026 36.9022L32.06 39.5426L32.3146 40.3947L32.615 40.1829L32.7411 39.5426L32.784 36.7292C32.784 36.7292 32.9543 36.2161 33.6395 36.1318C33.6395 36.1318 34.7057 36.0018 34.8788 36.0917C35.049 36.1735 37.3485 36.3007 37.9923 36.1735C38.6304 36.0459 38.7565 36.5992 40.6797 35.6214C40.6797 35.6214 41.1918 35.6644 41.1918 36.0018C41.1918 36.0018 41.0174 39.63 41.1918 40.3076C41.1918 40.3076 41.1918 46.9552 41.0588 47.4242L41.146 49.5552C41.146 49.5552 41.2306 50.4935 39.7408 50.579C39.7408 50.579 40.6797 50.7075 34.7888 50.5374C34.7888 50.5374 33.8515 50.4935 32.8283 50.9609C32.8283 50.9609 32.615 50.9193 32.615 50.366C32.615 50.366 32.784 48.3647 32.615 46.4004L32.5322 44.2278L32.1472 44.2744Z" fill="white"/>
<path d="M28.3066 41.2508C28.3066 41.2508 28.4354 44.4034 28.3066 44.8292L28.2664 45.5128C28.2664 45.5128 28.4354 45.9786 28.6916 46.1516C28.6916 46.1516 28.9061 46.7462 28.3925 46.7048C28.3925 46.7048 27.3279 46.619 27.0717 46.6594C27.0717 46.6594 26.4721 46.6594 27.0717 45.8969C27.0717 45.8969 27.2849 45.5939 27.2407 44.8292C27.2407 44.8292 27.2407 41.2508 27.3279 41.0394C27.3279 41.0394 27.4122 40.5675 27.1131 40.4391L26.5994 40.4833L25.9625 41.0795C25.9625 41.0795 25.8324 41.7214 25.5336 41.0394V40.6951L25.9199 39.6728L26.1761 39.6283C26.1761 39.6283 26.558 39.8846 26.8986 39.9729H28.9061L29.6302 39.6283C29.6302 39.6283 29.9278 39.6728 29.8462 40.0559C29.8462 40.0559 29.9707 41.0394 29.4169 41.164C29.4169 41.164 29.0751 41.0394 28.9061 40.5675C28.9061 40.5675 28.3511 40.2718 28.3066 41.2508Z" fill="#12110C"/>
<path d="M37.7334 40.1002C37.7334 40.1002 36.115 39.9714 36.0749 41.7183C36.0749 41.7183 35.899 42.9147 37.6933 43.6826C37.6933 43.6826 39.0169 44.3189 38.9282 45.1281C38.9282 45.1281 38.7579 46.5777 37.3499 45.854C37.3499 45.854 36.6688 45.511 36.7143 45.1281C36.7143 45.1281 36.4973 44.6579 36.2424 44.7446C36.2424 44.7446 35.942 44.828 36.0749 46.2359C36.0749 46.2359 36.0749 46.7904 36.7143 46.2359L37.0508 46.323C37.0508 46.323 38.2041 47.2607 39.1831 46.1074C39.1831 46.1074 40.2518 45.1281 39.482 43.9357C39.482 43.9357 38.9282 43.0864 37.9482 42.6591C37.9482 42.6591 37.0094 42.229 36.7977 41.5053C36.7977 41.5053 37.0966 40.2245 38.2458 40.9066C38.2458 40.9066 38.6735 41.4185 38.9282 41.5053C38.9282 41.5053 39.2703 41.5053 39.1831 40.7349L39.1025 40.1002C39.1025 40.1002 39.0169 39.6255 38.4174 40.1002C38.4174 40.1002 37.8623 40.3104 37.7334 40.1002Z" fill="#12110C"/>
<path d="M32.5306 39.2025C32.8282 39.4196 32.8711 39.8445 32.8711 39.8445C33.7241 42.1017 34.4509 45.3865 34.4509 45.3865C34.6626 45.8085 35.0477 46.1516 35.0477 46.1516C35.773 46.406 35.0477 46.6177 35.0477 46.6177C34.7485 46.7477 33.7698 46.5789 33.7698 46.5789C33.2546 46.4877 33.4666 46.3217 33.4666 46.3217C33.6823 46.1086 33.5108 45.2537 33.5108 45.2537C33.4666 44.9163 33.0859 44.3605 33.0859 44.3605C32.9156 44.2743 32.6165 44.6578 32.6165 44.6578C32.6165 44.6578 32.1486 44.8292 32.1028 44.6578C32.0599 44.4846 31.7623 44.3232 31.7623 44.3232C31.2499 44.3232 31.0382 45.5939 31.0382 45.5939C31.3358 46.6607 31.0382 46.4877 31.0382 46.4877C30.7836 46.8323 29.9708 46.5789 29.9708 46.5789C29.5873 46.4877 29.846 46.1904 29.846 46.1904C30.3126 46.1086 30.4399 45.5939 30.4399 45.5939C30.6547 45.2966 32.0169 39.7574 32.0169 39.7574C32.1486 39.4998 32.2314 38.9895 32.5306 39.2025ZM31.851 42.0146C31.8065 42.2289 31.5061 43.4225 31.5061 43.4225L31.7623 43.8527C31.7623 43.8527 32.4462 43.8915 32.7008 43.8915C32.9542 43.8915 33 43.6825 33 43.4651C33 43.254 32.5306 41.9758 32.5306 41.9758L32.3148 41.7198L31.851 42.0146Z" fill="#12110C"/>
<path d="M20.9745 28.8827C20.9745 28.8827 20.5038 30.3777 18.4135 28.8398L11.2473 28.6681C11.2473 28.6681 10.3087 28.9698 10.1798 27.9879C10.1798 27.9879 10.3517 26.0293 10.2629 25.8576C10.2629 25.8576 10.3087 25.3015 9.36861 25.3015C9.36861 25.3015 7.9205 25.4757 7.87879 24.1965C7.87879 24.1965 7.62134 22.8284 9.62606 22.8754C9.62606 22.8754 10.2629 23.1727 10.3087 22.3626C10.3087 22.3626 10.2228 16.8227 10.2629 16.3941C10.2629 16.3941 10.4373 15.8878 9.45579 15.8004C9.45579 15.8004 8.04625 16.0965 7.87879 15.1588C7.87879 15.1588 7.79162 13.755 8.72891 13.6679C8.72891 13.6679 9.881 13.755 10.0955 13.4602C10.0955 13.4602 10.3517 13.625 10.3087 12.6011L10.3517 10.8558C10.3517 10.8558 10.4803 10.3868 11.2015 10.4298C11.2015 10.4298 12.5279 10.514 12.6995 10.3868C12.6995 10.3868 12.9974 10.0052 13.0789 9.832C13.0789 9.832 13.7656 9.7919 13.8929 9.95794C13.8929 9.95794 14.9146 10.644 18.8008 10.3868C18.8008 10.3868 19.3947 10.3868 19.5236 10.5585C19.5236 10.5585 20.2476 11.1115 20.6741 10.514C20.6741 10.514 21.3138 10.3868 23.2351 10.4298C23.2351 10.4298 25.3217 10.983 26.7742 9.7919L27.2421 9.87931C27.2421 9.87931 27.8388 10.8558 28.2693 10.5585C28.2693 10.5585 29.5472 10.4298 29.7617 10.687C29.7617 10.687 30.1894 11.3261 29.9721 12.9899C29.9721 12.9899 29.7187 13.7133 30.9552 13.7133C30.9552 13.7133 32.3616 13.4602 32.1929 14.7757C32.1929 14.7757 32.5776 16.2682 30.2311 16.0564C30.2311 16.0564 29.9307 16.4837 29.9721 16.7813C29.9721 16.7813 29.9307 21.6376 29.889 22.1949C29.889 22.1949 29.8476 22.9572 30.8708 22.9183C30.8708 22.9183 32.2358 22.8284 32.2772 24.0693C32.2772 24.0693 32.4475 25.6875 30.487 25.3873C30.487 25.3873 29.889 25.4757 29.8018 25.8576L29.7187 27.9879C29.7187 27.9879 29.7617 29.0541 28.5641 28.7997C28.3938 28.7997 21.9134 28.9256 21.3565 28.7583C21.3565 28.7583 21.0589 28.7154 20.9745 28.8827Z" fill="#12110C"/>
<path d="M20.9745 28.8839C20.9745 28.8839 20.5038 30.3793 18.4135 28.841L11.246 28.6696C11.246 28.6696 10.3071 28.971 10.1785 27.9879C10.1785 27.9879 10.3516 26.0293 10.2629 25.8576C10.2629 25.8576 10.3071 25.3031 9.367 25.3031C9.367 25.3031 7.91889 25.4772 7.8775 24.1978C7.8775 24.1978 7.6213 22.8284 9.62602 22.8754C9.62602 22.8754 10.2629 23.173 10.3071 22.3638C10.3071 22.3638 10.2212 16.8214 10.2629 16.3941C10.2629 16.3941 10.4373 15.8863 9.45449 15.8004C9.45449 15.8004 8.04495 16.0968 7.8775 15.1576C7.8775 15.1576 7.79032 13.7534 8.72887 13.6679C8.72887 13.6679 9.87939 13.7534 10.0955 13.4577C10.0955 13.4577 10.3516 13.625 10.3071 12.6011L10.3516 10.8542C10.3516 10.8542 10.479 10.3856 11.2014 10.4297C11.2014 10.4297 12.5266 10.5128 12.6982 10.3856C12.6982 10.3856 12.9973 10.0052 13.0789 9.83198C13.0789 9.83198 13.764 9.79063 13.8929 9.95792C13.8929 9.95792 14.9133 10.6428 18.8007 10.3856C18.8007 10.3856 19.3947 10.3856 19.5236 10.5569C19.5236 10.5569 20.2476 11.1102 20.6741 10.5128C20.6741 10.5128 21.315 10.3856 23.2351 10.4297C23.2351 10.4297 25.3232 10.9802 26.7742 9.79063L27.2433 9.87772C27.2433 9.87772 27.84 10.8542 28.2693 10.5569C28.2693 10.5569 29.5471 10.4297 29.7645 10.6841C29.7645 10.6841 30.1894 11.3248 29.9736 12.9871C29.9736 12.9871 29.7187 13.7133 30.9551 13.7133C30.9551 13.7133 32.3643 13.4577 32.1928 14.7744C32.1928 14.7744 32.5776 16.2682 30.2323 16.0551C30.2323 16.0551 29.9307 16.4824 29.9736 16.7813C29.9736 16.7813 29.9307 21.6376 29.8905 22.1937C29.8905 22.1937 29.8476 22.9584 30.8708 22.9199C30.8708 22.9199 32.2358 22.8284 32.2787 24.0706C32.2787 24.0706 32.4474 25.6875 30.4869 25.3873C30.4869 25.3873 29.8905 25.4772 29.8033 25.8576L29.7187 27.9879C29.7187 27.9879 29.7645 29.0556 28.5656 28.8009C28.3954 28.8009 21.9133 28.9256 21.3564 28.7583C21.3564 28.7583 21.0588 28.7166 20.9745 28.8839Z" stroke="#12110C" stroke-width="0.0133333"/>
<path d="M12.9113 11.326C12.9113 11.326 12.9972 12.1766 12.9972 12.3897C12.9972 12.6027 12.8671 24.7069 12.8671 24.7069C12.8671 24.7069 12.9972 25.6474 12.1847 26.1135C12.1847 26.1135 11.9727 26.2006 11.9285 25.6044L12.0157 12.8185C12.0157 12.8185 12.1001 11.2402 12.9113 11.326Z" fill="white"/>
<path d="M12.9128 11.3247C12.9128 11.3247 12.9984 12.1752 12.9984 12.3883C12.9984 12.6013 12.8683 24.7067 12.8683 24.7067C12.8683 24.7067 12.9984 25.6472 12.1847 26.1162C12.1847 26.1162 11.9727 26.2021 11.9285 25.6059L12.0128 12.8184C12.0128 12.8184 12.0987 11.2401 12.9128 11.3247Z" stroke="#12110C" stroke-width="0.016"/>
<path d="M11.5034 26.2409C11.5034 26.2409 11.5865 14.2225 11.5463 14.0079C11.5034 13.7977 11.5865 14.1809 11.5865 14.1809C11.5865 14.1809 11.462 12.095 12.0155 11.2403C12.0155 11.2403 11.8439 10.5154 10.8624 11.4089L10.8235 13.1573C10.8235 13.1573 10.8235 14.1379 9.92513 14.095C9.92513 14.095 8.90067 14.0508 8.42998 14.5227C8.42998 14.5227 8.17504 15.4588 9.15404 15.2902C9.15404 15.2902 10.6922 15.2902 10.7765 15.9249L10.6922 22.3624C10.6922 22.3624 11.034 23.4275 9.83796 23.4275C9.83796 23.4275 8.38828 23.3458 8.42998 24.2408C8.42998 24.2408 8.72883 25.0084 9.9681 24.7512C9.9681 24.7512 10.8624 24.9225 10.8235 25.7706V27.3944C10.8235 27.3944 10.7335 28.0347 11.5865 28.0736H18.2428C18.2428 28.0736 18.5837 28.1162 18.5837 27.6889C18.5837 27.6889 18.5404 27.3527 18.0312 27.3527L12.4877 27.2644C12.4877 27.2644 11.5865 27.5632 11.5034 26.2409Z" fill="white"/>
<path d="M12.6553 26.3279C12.6553 26.3279 12.4862 26.9269 13.1231 26.7953H17.5173L18.7121 27.05C18.7121 27.05 19.9526 26.7524 18.7121 26.0691C18.7121 26.0691 14.7873 26.1149 14.4452 26.029C14.4452 26.029 13.6368 25.8163 13.4652 25.7731C13.4652 25.7731 13.0375 25.6045 12.6553 26.3279Z" fill="white"/>
<path d="M12.6539 26.3265C12.6539 26.3265 12.4849 26.9281 13.1218 26.794H17.5176L18.7139 27.0512C18.7139 27.0512 19.9541 26.7539 18.7139 26.0693C18.7139 26.0693 14.7872 26.1148 14.4454 26.0264C14.4454 26.0264 13.6354 25.8146 13.4639 25.7733C13.4639 25.7733 13.0359 25.6032 12.6539 26.3265Z" stroke="#12110C" stroke-width="0.016"/>
<path d="M19.9514 26.9268C19.9514 26.9268 19.1389 26.9268 19.1816 27.9863C19.1816 27.9863 19.2675 28.8009 20.1188 28.8009C20.1188 28.8009 20.8874 28.6684 20.8043 27.8203C20.8043 27.8203 20.3333 26.7526 19.9514 26.9268Z" fill="white"/>
<path d="M20.5467 26.4967C20.5467 26.4967 20.9289 26.0706 21.1876 26.0706C21.1876 26.0706 25.452 26.4553 26.1773 25.9446C26.1773 25.9446 26.8195 25.8175 26.9873 25.9446C26.9873 25.9446 27.627 26.4553 27.627 26.7526C27.627 26.7526 27.5853 27.1398 26.8195 26.9268C26.8195 26.9268 21.9948 26.9669 21.7414 26.9669C21.7414 26.9669 20.4178 27.2642 20.5467 26.4967Z" fill="white"/>
<path d="M20.5453 26.4966C20.5453 26.4966 20.9288 26.0693 21.1863 26.0693C21.1863 26.0693 25.4519 26.4553 26.1772 25.9446C26.1772 25.9446 26.821 25.8162 26.9885 25.9446C26.9885 25.9446 27.6282 26.4553 27.6282 26.7538C27.6282 26.7538 27.5868 27.1414 26.821 26.9268C26.821 26.9268 21.9963 26.9684 21.7401 26.9684C21.7401 26.9684 20.4165 27.2658 20.5453 26.4966Z" stroke="#12110C" stroke-width="0.016"/>
<path d="M21.2293 27.7761C21.2293 27.7761 21.2293 27.4371 21.8232 27.4371L27.8001 27.3929C27.8001 27.3929 28.3523 27.6874 28.3523 26.668C28.3523 26.668 28.5712 22.0207 28.5906 16.9056C28.5988 15.3843 28.6652 13.7869 28.6072 12.3066C28.6072 12.3066 28.4799 11.669 28.3096 11.5375C28.3096 11.5375 28.3096 10.8557 29.0378 11.1142C29.0378 11.1142 29.6731 11.1546 29.5041 12.1336L29.5458 13.6261C29.5458 13.6261 29.4185 14.2652 30.5702 14.0951C30.5702 14.0951 31.7208 14.2652 31.7622 14.6913C31.7622 14.6913 32.1071 15.546 30.7433 15.4589H29.7631C29.7631 15.4589 29.3354 15.7136 29.4627 16.2267L29.3354 22.4051C29.3354 22.4051 29.2466 23.4703 30.2739 23.4314C30.2739 23.4314 31.3401 23.3872 31.5505 23.7275C31.5505 23.7275 32.2786 24.7939 30.6991 24.7084C30.6991 24.7084 29.7173 24.6639 29.5041 24.834C29.5041 24.834 29.3354 25.0511 29.2065 27.0514C29.2065 27.0514 29.2908 28.2451 28.3952 28.1163C28.3952 28.1163 22.4654 28.1993 21.9132 28.0734C21.9132 28.0734 21.3137 28.2451 21.2293 27.7761Z" fill="white"/>
<path d="M13.5483 10.9387L13.4238 24.6209C13.4238 24.6209 13.3808 25.256 14.4467 25.3844C14.4467 25.3844 15.6859 25.5132 15.9823 25.3844C15.9823 25.3844 16.7907 25.3431 18.8826 25.4289C18.8826 25.4289 19.395 25.9377 19.4363 25.3017C19.4363 25.3017 19.7785 14.2182 19.6079 11.9181C19.6079 11.9181 19.5665 10.9387 18.8384 10.8958C18.8384 10.8958 15.5988 11.1505 15.2996 10.8958L14.0218 10.554C14.0218 10.554 13.5069 10.5944 13.5483 10.9387Z" fill="white"/>
<path d="M27.0717 11.4506L27.03 24.9197C27.03 24.9197 27.3721 26.1165 27.9288 25.989C27.9288 25.989 28.0131 25.7318 28.0548 25.3029L28.2279 12.4728C28.2279 12.4728 27.7999 10.4268 27.0717 11.4506Z" fill="white" stroke="#12110C" stroke-width="0.016"/>
<path d="M27.0717 11.4506L27.03 24.9197C27.03 24.9197 27.3721 26.1165 27.9288 25.989C27.9288 25.989 28.0131 25.7318 28.0548 25.3029L28.2279 12.4728C28.2279 12.4728 27.7999 10.4268 27.0717 11.4506Z" stroke="#12110C" stroke-width="0.016"/>
<path d="M20.2933 11.5653C20.2933 11.5653 20.1647 17.9999 20.2048 18.2158L20.1243 23.6294L19.9515 25.4994C19.9515 25.4994 20.2048 25.8882 20.4193 25.6306C20.4193 25.6306 21.7859 25.2917 22.6385 25.4179C22.6385 25.4179 25.3701 25.6751 25.9227 25.2475C25.9227 25.2475 26.3491 25.4593 26.4777 24.7773C26.4777 24.7773 26.6467 12.846 26.5621 12.6317C26.5621 12.6317 26.7339 10.929 26.6467 10.7605C26.6467 10.7605 26.6038 10.3729 25.8825 10.7119C25.8825 10.7119 25.9653 11.0562 21.9145 10.929C21.9145 10.929 20.3779 10.8848 20.2933 11.5653Z" fill="white"/>
<path d="M18.9753 15.5074L18.5893 16.3207C18.5893 16.3207 17.6545 20.4523 17.1437 21.3029C17.1437 21.3029 17.0578 22.1579 16.3324 21.4743C16.3324 21.4743 14.667 16.2336 14.5823 16.0622L14.0273 15.6788C14.0273 15.6788 13.6908 15.2101 14.2848 15.1684L15.863 15.2101C15.863 15.2101 16.3738 15.6346 15.6927 16.1089C15.6927 16.1089 15.7774 16.7897 16.673 19.3859C16.673 19.3859 16.9276 20.3665 17.2268 19.6416L18.081 16.6152L17.8248 15.7204C17.8248 15.7204 17.5673 15.2944 17.9536 15.253C17.9536 15.253 18.8495 15.1684 18.9753 15.5074Z" fill="#12110C"/>
<path d="M21.4521 16.1906L21.4063 20.7082L21.2818 21.0484C21.2818 21.0484 20.8541 21.6004 21.1516 21.6446C21.1516 21.6446 20.771 21.9018 23.8804 21.9432C23.8804 21.9432 25.078 22.155 24.7776 20.6211C24.7776 20.6211 24.6503 20.0675 24.221 20.8783C24.221 20.8783 24.0936 21.5572 22.5612 21.3457C22.5612 21.3457 22.2191 21.0484 22.2191 20.7082V18.8313C22.2191 18.8313 22.1736 18.3607 22.9002 18.4093C22.9002 18.4093 23.7101 18.9184 23.839 18.7025C23.839 18.7025 24.1366 18.0233 23.839 17.596C23.839 17.596 23.4539 17.5559 23.4126 17.726C23.4126 17.726 23.1564 18.2348 22.431 17.9362C22.431 17.9362 22.0905 17.2558 22.3034 16.7009C22.3034 16.7009 22.2191 15.6348 22.9447 15.7216C22.9447 15.7216 23.7973 15.8905 23.8804 16.1492C23.8804 16.1492 24.0936 16.6624 24.3097 16.065L24.0936 15.3372C24.0936 15.3372 23.9692 15.0383 23.7544 15.1242C23.7544 15.1242 22.3034 15.3372 22.1306 15.1643L20.9785 15.2943C20.9785 15.2943 20.8098 15.7216 21.3235 15.9321C21.3235 15.9321 21.4521 16.0192 21.4521 16.1906Z" fill="#12110C"/>
</g>
</svg>
