<svg width="77" height="18" viewBox="0 0 77 18" fill="none" xmlns="http://www.w3.org/2000/svg">
<g id="Ensina">
<path d="M5.4119 2.96927C5.4119 4.77374 5.39542 6.32495 5.36247 7.62291H7.88308L8.1302 5.98464C8.9704 5.98464 9.78589 6.1825 10.5767 6.57821V11.3268L8.94569 11.398C8.5503 10.8282 8.31966 10.3296 8.25376 9.90223H5.33776C5.30481 12.1182 5.28834 13.7882 5.28834 14.912H9.51406L10.0577 12.8464C11.0791 12.8464 11.8535 12.8939 12.3806 12.9888C12.6278 13.8911 12.7513 14.7142 12.7513 15.4581C12.7513 16.1862 12.7266 16.7719 12.6772 17.2151H0.420101L0.197695 15.9092C1.26854 15.5135 1.96047 15.284 2.27349 15.2207C2.25702 14.2868 2.24054 12.973 2.22407 11.2793C2.15817 7.48045 2.10051 4.60754 2.05108 2.66061L0 2.0433L0.197695 0.594972H12.3312C12.3806 1.02235 12.4053 1.56052 12.4053 2.2095C12.4053 2.84264 12.2818 3.72905 12.0347 4.86871C11.524 5.027 10.7497 5.10614 9.71176 5.10614L9.14338 2.96927H5.4119Z" fill="#0B933A"/>
<path d="M22.9506 4.86871C24.598 4.86871 25.7924 5.25652 26.5338 6.03212C27.2751 6.80773 27.6458 7.89199 27.6458 9.28492C27.6458 10.6778 27.5634 12.5615 27.3987 14.9358L29.3509 15.1494C29.3509 15.7984 29.1615 16.487 28.7825 17.2151H22.6293L22.4069 15.9092C23.1812 15.6085 23.8978 15.371 24.5568 15.1969C24.5074 13.3766 24.458 11.8492 24.4086 10.6145C24.3591 9.36406 24.2356 8.51723 24.0379 8.07402C23.8402 7.63082 23.4036 7.40922 22.7281 7.40922C21.7067 7.40922 20.7924 7.58333 19.9851 7.93156C19.9687 8.6122 19.9192 9.72812 19.8369 11.2793C19.771 12.8147 19.7298 14.0335 19.7133 14.9358L21.6408 15.1494C21.6408 15.7984 21.4514 16.487 21.0725 17.2151H14.9192L14.6968 15.9092C15.5205 15.6085 16.2619 15.371 16.9209 15.1969C16.9044 14.2472 16.8467 12.9334 16.7479 11.2556C16.6655 9.57775 16.6161 8.3352 16.5996 7.52793C15.99 7.46462 15.3393 7.3459 14.6474 7.17179L14.7709 5.46229C15.9241 5.16155 17.2256 5.01117 18.6754 5.01117C18.8566 5.12197 19.1037 5.46229 19.4168 6.03212C19.9769 5.76304 20.6606 5.50186 21.4678 5.2486C22.2751 4.99534 22.7693 4.86871 22.9506 4.86871Z" fill="#0B933A"/>
<path d="M39.0432 5.88966L39.0679 6.6257C39.0679 7.86034 38.969 8.6676 38.7714 9.04749C38.2277 9.23743 37.4699 9.3324 36.4979 9.3324L35.7071 6.93436C35.4929 6.85521 35.1964 6.81564 34.8175 6.81564C34.4385 6.81564 34.1255 6.92644 33.8784 7.14805C33.6478 7.36965 33.5324 7.63082 33.5324 7.93156C33.5324 8.23231 33.656 8.50931 33.9031 8.76257C34.1502 9 34.4056 9.18994 34.6692 9.3324C34.9328 9.47486 35.3117 9.6648 35.8059 9.90223C36.3166 10.1238 36.6956 10.298 36.9427 10.4246C37.2063 10.5512 37.5358 10.7412 37.9311 10.9944C38.343 11.2477 38.656 11.4851 38.8702 11.7067C39.3974 12.3082 39.661 12.9651 39.661 13.6774C39.661 14.8962 39.175 15.838 38.203 16.5028C37.2475 17.1676 36.0695 17.5 34.6692 17.5C33.9278 17.5 33.1123 17.3734 32.2227 17.1201C31.3496 16.8669 30.6082 16.5265 29.9986 16.0992C29.9986 14.9595 30.114 13.899 30.3446 12.9176C31.0036 12.8385 31.539 12.7989 31.9509 12.7989C32.3627 12.7989 32.6428 12.8068 32.7911 12.8226L33.0876 15.1257C33.4995 15.2682 33.9937 15.3394 34.5703 15.3394C35.1469 15.3394 35.6 15.2286 35.9295 15.007C36.2755 14.7854 36.4484 14.4767 36.4484 14.081C36.4484 13.6695 36.259 13.3291 35.8801 13.0601C35.5011 12.791 34.9822 12.514 34.3232 12.2291C33.6642 11.9283 33.1535 11.683 32.7911 11.493C32.4286 11.2872 32.0415 11.0261 31.6296 10.7095C30.7894 10.0922 30.3693 9.3324 30.3693 8.43017C30.3693 7.30633 30.7729 6.43575 31.5802 5.81844C32.4039 5.18529 33.5077 4.86871 34.8916 4.86871C36.2755 4.86871 37.6593 5.20903 39.0432 5.88966Z" fill="#0B933A"/>
<path d="M46.2627 5.05866C46.5757 5.05866 46.7734 5.06657 46.8558 5.0824C46.8558 5.85801 46.7158 6.57821 46.4357 7.24302C46.3698 10.662 46.3286 13.2263 46.3121 14.9358L48.2397 15.1494C48.2397 15.7984 48.0502 16.487 47.6713 17.2151H41.518L41.2956 15.9092C42.3171 15.5452 43.0584 15.3077 43.5197 15.1969L43.2479 7.50419C42.2759 7.40922 41.5592 7.2905 41.0979 7.14805C41.0979 6.75233 41.1556 6.1825 41.2709 5.43855C42.2429 5.18529 43.9068 5.05866 46.2627 5.05866ZM46.2627 0.57123C46.411 1.28352 46.4851 1.82961 46.4851 2.2095C46.4851 2.57356 46.4522 2.9851 46.3863 3.44413C45.7273 3.58659 45.1671 3.65782 44.7059 3.65782C44.261 3.65782 43.7174 3.63408 43.0749 3.58659C42.9266 2.8743 42.8525 2.33613 42.8525 1.97207C42.8525 1.59218 42.8854 1.17272 42.9513 0.713687C43.6103 0.571229 44.1622 0.5 44.607 0.5C45.0683 0.5 45.6202 0.523743 46.2627 0.57123Z" fill="#0B933A"/>
<path d="M56.9535 4.86871C58.6009 4.86871 59.7953 5.25652 60.5367 6.03212C61.278 6.80773 61.6487 7.89199 61.6487 9.28492C61.6487 10.6778 61.5664 12.5615 61.4016 14.9358L63.3538 15.1494C63.3538 15.7984 63.1644 16.487 62.7855 17.2151H56.6322L56.4098 15.9092C57.1841 15.6085 57.9008 15.371 58.5597 15.1969C58.5103 13.3766 58.4609 11.8492 58.4115 10.6145C58.3621 9.36406 58.2385 8.51723 58.0408 8.07402C57.8431 7.63082 57.4065 7.40922 56.7311 7.40922C55.7096 7.40922 54.7953 7.58333 53.9881 7.93156C53.9716 8.6122 53.9222 9.72812 53.8398 11.2793C53.7739 12.8147 53.7327 14.0335 53.7162 14.9358L55.6438 15.1494C55.6438 15.7984 55.4543 16.487 55.0754 17.2151H48.9221L48.6997 15.9092C49.5234 15.6085 50.2648 15.371 50.9238 15.1969C50.9073 14.2472 50.8497 12.9334 50.7508 11.2556C50.6684 9.57775 50.619 8.3352 50.6025 7.52793C49.993 7.46462 49.3422 7.3459 48.6503 7.17179L48.7739 5.46229C49.9271 5.16155 51.2286 5.01117 52.6783 5.01117C52.8596 5.12197 53.1067 5.46229 53.4197 6.03212C53.9798 5.76304 54.6635 5.50186 55.4708 5.2486C56.278 4.99534 56.7723 4.86871 56.9535 4.86871Z" fill="#0B933A"/>
<path d="M68.598 17.5C67.1976 17.5 66.1103 17.223 65.336 16.669C64.5782 16.115 64.1993 15.1811 64.1993 13.8673C64.1993 12.6169 64.6523 11.5959 65.5584 10.8045C66.0856 10.3454 66.8187 10.0764 67.7578 9.99721C68.6968 9.91806 69.9901 9.87849 71.6375 9.87849V9.4986C71.6375 8.53305 71.4728 7.82868 71.1433 7.38547C70.8303 6.92644 70.2701 6.69693 69.4629 6.69693C69.051 6.69693 68.6803 6.77607 68.3509 6.93436L67.7578 9L65.9291 8.95251C65.5172 8.35102 65.2948 7.39339 65.2619 6.07961C65.5914 5.92132 66.3657 5.68389 67.5848 5.36732C68.8039 5.03492 69.5864 4.86871 69.9324 4.86871C71.7117 4.86871 73.0049 5.22486 73.8122 5.93715C74.6194 6.63361 75.0231 7.74953 75.0231 9.28492C75.0231 10.8045 74.9489 12.8147 74.8006 15.3156C75.7397 15.3948 76.4646 15.5293 76.9753 15.7193C76.9918 15.9092 77 16.1387 77 16.4078L76.9753 16.9302C75.7891 17.3101 74.5947 17.5 73.3921 17.5C73.0791 17.5 72.8484 17.4921 72.7001 17.4763C72.453 17.0014 72.3048 16.4316 72.2553 15.7668H72.1318C71.8188 16.0517 71.2669 16.4157 70.4761 16.8589C69.7018 17.2863 69.0757 17.5 68.598 17.5ZM67.3624 14.0098C67.3624 14.5321 67.5271 14.9199 67.8566 15.1732C68.2026 15.4106 68.5897 15.5293 69.0181 15.5293C69.4464 15.5293 69.9571 15.3473 70.5502 14.9832C71.1433 14.6034 71.6211 14.263 71.9835 13.9623L71.8599 11.7779C70.5584 11.8412 69.5782 11.96 68.9192 12.1341C67.8813 12.3399 67.3624 12.9651 67.3624 14.0098Z" fill="#0B933A"/>
</g>
</svg>
