<svg width="73" height="17" viewBox="0 0 73 17" fill="none" xmlns="http://www.w3.org/2000/svg">
<path d="M5.13076 2.46927C5.13076 4.27374 5.11514 5.82495 5.0839 7.12291H7.47357L7.70785 5.48464C8.50441 5.48464 9.27754 5.6825 10.0272 6.07821V10.8268L8.48098 10.898C8.10613 10.3282 7.88747 9.82961 7.82499 9.40223H5.06047C5.02924 11.6182 5.01362 13.2882 5.01362 14.412H9.01983L9.53524 12.3464C10.5036 12.3464 11.2377 12.3939 11.7375 12.4888C11.9718 13.3911 12.0889 14.2142 12.0889 14.9581C12.0889 15.6862 12.0655 16.2719 12.0186 16.7151H0.398278L0.187425 15.4092C1.20264 15.0135 1.85863 14.784 2.15539 14.7207C2.13977 13.7868 2.12415 12.473 2.10853 10.7793C2.04606 6.98045 1.99139 4.10754 1.94453 2.16061L0 1.5433L0.187425 0.0949722H11.6906C11.7375 0.522347 11.7609 1.06052 11.7609 1.7095C11.7609 2.34265 11.6438 3.22905 11.4095 4.36871C10.9253 4.527 10.1912 4.60615 9.20725 4.60615L8.6684 2.46927H5.13076Z" fill="#30B95F"/>
<path d="M21.7583 4.36871C23.3202 4.36871 24.4525 4.75652 25.1554 5.53212C25.8582 6.30773 26.2097 7.39199 26.2097 8.78492C26.2097 10.1778 26.1316 12.0615 25.9754 14.4358L27.8262 14.6494C27.8262 15.2984 27.6466 15.987 27.2874 16.7151H21.4537L21.2429 15.4092C21.977 15.1085 22.6564 14.871 23.2811 14.6969C23.2343 12.8766 23.1874 11.3492 23.1406 10.1145C23.0937 8.86406 22.9766 8.01723 22.7892 7.57402C22.6017 7.13082 22.1878 6.90922 21.5475 6.90922C20.5791 6.90922 19.7123 7.08333 18.9469 7.43156C18.9313 8.1122 18.8845 9.22812 18.8064 10.7793C18.7439 12.3147 18.7049 13.5335 18.6892 14.4358L20.5166 14.6494C20.5166 15.2984 20.337 15.987 19.9778 16.7151H14.1442L13.9333 15.4092C14.7143 15.1085 15.4171 14.871 16.0419 14.6969C16.0262 13.7472 15.9716 12.4334 15.8779 10.7556C15.7998 9.07775 15.7529 7.8352 15.7373 7.02793C15.1594 6.96462 14.5425 6.8459 13.8865 6.67179L14.0036 4.96229C15.0969 4.66155 16.3308 4.51117 17.7053 4.51117C17.8771 4.62197 18.1113 4.96229 18.4081 5.53212C18.9391 5.26304 19.5873 5.00186 20.3526 4.7486C21.1179 4.49534 21.5865 4.36871 21.7583 4.36871Z" fill="#30B95F"/>
<path d="M37.015 5.38966L37.0384 6.1257C37.0384 7.36034 36.9447 8.1676 36.7573 8.54749C36.2418 8.73743 35.5234 8.8324 34.6019 8.8324L33.8522 6.43436C33.6491 6.35521 33.368 6.31564 33.0088 6.31564C32.6495 6.31564 32.3528 6.42644 32.1185 6.64804C31.8998 6.86965 31.7905 7.13082 31.7905 7.43156C31.7905 7.73231 31.9076 8.00931 32.1419 8.26257C32.3762 8.5 32.6183 8.68994 32.8682 8.8324C33.1181 8.97486 33.4773 9.1648 33.9459 9.40223C34.4301 9.62384 34.7893 9.79795 35.0236 9.92458C35.2735 10.0512 35.5858 10.2412 35.9607 10.4944C36.3512 10.7477 36.6479 10.9851 36.851 11.2067C37.3508 11.8082 37.6007 12.4651 37.6007 13.1774C37.6007 14.3962 37.1399 15.338 36.2184 16.0028C35.3125 16.6676 34.1958 17 32.8682 17C32.1653 17 31.3922 16.8734 30.5488 16.6201C29.721 16.3669 29.0182 16.0265 28.4403 15.5992C28.4403 14.4595 28.5496 13.399 28.7683 12.4176C29.393 12.3385 29.9006 12.2989 30.2911 12.2989C30.6816 12.2989 30.9471 12.3068 31.0877 12.3226L31.3688 14.6257C31.7593 14.7682 32.2278 14.8394 32.7745 14.8394C33.3211 14.8394 33.7506 14.7286 34.063 14.507C34.391 14.2854 34.555 13.9767 34.555 13.581C34.555 13.1695 34.3754 12.8291 34.0162 12.5601C33.6569 12.291 33.1649 12.014 32.5402 11.7291C31.9154 11.4283 31.4313 11.183 31.0877 10.993C30.744 10.7872 30.377 10.5261 29.9865 10.2095C29.19 9.59218 28.7917 8.8324 28.7917 7.93017C28.7917 6.80633 29.1744 5.93575 29.9397 5.31844C30.7206 4.68529 31.7671 4.36871 33.079 4.36871C34.391 4.36871 35.703 4.70903 37.015 5.38966Z" fill="#30B95F"/>
<path d="M43.8594 4.55866C44.1562 4.55866 44.3436 4.56657 44.4217 4.5824C44.4217 5.35801 44.289 6.07821 44.0234 6.74302C43.961 10.162 43.9219 12.7263 43.9063 14.4358L45.7337 14.6494C45.7337 15.2984 45.5541 15.987 45.1949 16.7151H39.3613L39.1504 15.4092C40.1188 15.0452 40.8216 14.8077 41.2589 14.6969L41.0012 7.00419C40.0797 6.90922 39.4003 6.7905 38.963 6.64804C38.963 6.25233 39.0176 5.6825 39.127 4.93855C40.0485 4.68529 41.626 4.55866 43.8594 4.55866ZM43.8594 0.0712295C44 0.78352 44.0703 1.32961 44.0703 1.7095C44.0703 2.07356 44.0391 2.4851 43.9766 2.94413C43.3518 3.08659 42.8208 3.15782 42.3835 3.15782C41.9618 3.15782 41.4464 3.13408 40.8372 3.08659C40.6967 2.3743 40.6264 1.83613 40.6264 1.47207C40.6264 1.09218 40.6576 0.67272 40.7201 0.213687C41.3448 0.0712291 41.8681 0 42.2898 0C42.7271 0 43.2503 0.0237432 43.8594 0.0712295Z" fill="#30B95F"/>
<path d="M53.9949 4.36871C55.5567 4.36871 56.6891 4.75652 57.3919 5.53212C58.0948 6.30773 58.4462 7.39199 58.4462 8.78492C58.4462 10.1778 58.3681 12.0615 58.2119 14.4358L60.0627 14.6494C60.0627 15.2984 59.8831 15.987 59.5239 16.7151H53.6903L53.4794 15.4092C54.2135 15.1085 54.8929 14.871 55.5177 14.6969C55.4708 12.8766 55.424 11.3492 55.3771 10.1145C55.3303 8.86406 55.2131 8.01723 55.0257 7.57402C54.8383 7.13082 54.4244 6.90922 53.784 6.90922C52.8156 6.90922 51.9488 7.08333 51.1835 7.43156C51.1679 8.1122 51.121 9.22812 51.0429 10.7793C50.9804 12.3147 50.9414 13.5335 50.9258 14.4358L52.7532 14.6494C52.7532 15.2984 52.5736 15.987 52.2143 16.7151H46.3807L46.1699 15.4092C46.9508 15.1085 47.6536 14.871 48.2784 14.6969C48.2628 13.7472 48.2081 12.4334 48.1144 10.7556C48.0363 9.07775 47.9894 7.8352 47.9738 7.02793C47.3959 6.96462 46.779 6.8459 46.123 6.67179L46.2402 4.96229C47.3335 4.66155 48.5673 4.51117 49.9418 4.51117C50.1136 4.62197 50.3479 4.96229 50.6446 5.53212C51.1757 5.26304 51.8239 5.00186 52.5892 4.7486C53.3545 4.49534 53.8231 4.36871 53.9949 4.36871Z" fill="#30B95F"/>
<path d="M65.0344 17C63.7068 17 62.676 16.723 61.9419 16.169C61.2235 15.615 60.8642 14.6811 60.8642 13.3673C60.8642 12.1169 61.2938 11.0959 62.1528 10.3045C62.6526 9.84544 63.3476 9.57635 64.2379 9.49721C65.1282 9.41806 66.3542 9.37849 67.9161 9.37849V8.9986C67.9161 8.03305 67.7599 7.32868 67.4475 6.88547C67.1508 6.42644 66.6197 6.19693 65.8544 6.19693C65.464 6.19693 65.1125 6.27607 64.8002 6.43436L64.2379 8.5L62.5042 8.45251C62.1137 7.85102 61.9029 6.89339 61.8716 5.57961C62.184 5.42132 62.9181 5.18389 64.0739 4.86732C65.2297 4.53492 65.9716 4.36871 66.2996 4.36871C67.9864 4.36871 69.2125 4.72486 69.9778 5.43715C70.7431 6.13361 71.1258 7.24953 71.1258 8.78492C71.1258 10.3045 71.0555 12.3147 70.9149 14.8156C71.8052 14.8948 72.4924 15.0293 72.9766 15.2193C72.9922 15.4092 73 15.6387 73 15.9078L72.9766 16.4302C71.852 16.8101 70.7197 17 69.5795 17C69.2827 17 69.0641 16.9921 68.9235 16.9763C68.6892 16.5014 68.5487 15.9316 68.5018 15.2668H68.3847C68.0879 15.5517 67.5647 15.9157 66.815 16.3589C66.0809 16.7863 65.4874 17 65.0344 17ZM63.863 13.5098C63.863 14.0321 64.0192 14.4199 64.3316 14.6732C64.6596 14.9106 65.0266 15.0293 65.4327 15.0293C65.8388 15.0293 66.323 14.8473 66.8853 14.4832C67.4475 14.1034 67.9005 13.763 68.2441 13.4623L68.127 11.2779C66.8931 11.3412 65.9638 11.46 65.339 11.6341C64.355 11.8399 63.863 12.4651 63.863 13.5098Z" fill="#30B95F"/>
</svg>
