<svg width="124" height="22" viewBox="0 0 124 22" fill="none" xmlns="http://www.w3.org/2000/svg">
<path d="M10.9681 0.807251L13.5232 8.53861H21.7917L15.1024 13.3169L17.6575 21.0482L10.9681 16.27L4.27882 21.0482L6.83392 13.3169L0.144592 8.53861H8.41305L10.9681 0.807251Z" fill="black"/>
<path d="M36.4238 0.807251L38.9789 8.53861H47.2474L40.5581 13.3169L43.1132 21.0482L36.4238 16.27L29.7345 21.0482L32.2896 13.3169L25.6003 8.53861H33.8688L36.4238 0.807251Z" fill="black"/>
<path d="M61.8795 0.807251L64.4346 8.53861H72.7031L66.0138 13.3169L68.5689 21.0482L61.8795 16.27L55.1902 21.0482L57.7453 13.3169L51.056 8.53861H59.3245L61.8795 0.807251Z" fill="black"/>
<path d="M87.3352 0.807251L89.8903 8.53861H98.1588L91.4695 13.3169L94.0246 21.0482L87.3352 16.27L80.6459 21.0482L83.201 13.3169L76.5117 8.53861H84.7802L87.3352 0.807251Z" fill="black"/>
<path d="M112.791 0.807251L115.346 8.53861H123.614L116.925 13.3169L119.48 21.0482L112.791 16.27L106.102 21.0482L108.657 13.3169L101.967 8.53861H110.236L112.791 0.807251Z" fill="black"/>
</svg>
